<svg width="1252" height="574" viewBox="0 0 1252 574" fill="none" xmlns="http://www.w3.org/2000/svg">
<path fill-rule="evenodd" clip-rule="evenodd" d="M90 200C90 224.853 69.8528 245 45 245C20.147 245 0 224.853 0 200C0 175.147 20.147 155 45 155C69.8528 155 90 175.147 90 200Z" fill="#D7EFF6"/>
<path fill-rule="evenodd" clip-rule="evenodd" d="M30.3725 174.054C30.7085 173.479 31.325 173.125 31.9915 173.125H46.1078C47.1433 173.125 47.9828 173.964 47.9828 175C47.9828 176.036 47.1433 176.875 46.1078 176.875H33.0678L24.6714 191.25L33.0678 205.625H49.9L60.8815 186.845C61.4043 185.952 62.5525 185.65 63.4465 186.173C64.3405 186.696 64.6413 187.844 64.1185 188.738L52.5943 208.446C52.258 209.021 51.6418 209.375 50.9758 209.375H31.9915C31.325 209.375 30.7085 209.021 30.3725 208.446L20.881 192.196C20.5397 191.611 20.5397 190.889 20.881 190.304L30.3725 174.054Z" fill="#0074A3"/>
<path fill-rule="evenodd" clip-rule="evenodd" d="M52.45 179.056C52.786 178.479 53.4027 178.125 54.0697 178.125H73.023C73.69 178.125 74.3067 178.479 74.6427 179.056L84.1197 195.306C84.46 195.889 84.46 196.611 84.1197 197.194L74.6427 213.444C74.3067 214.021 73.69 214.375 73.023 214.375H59.0408C58.0053 214.375 57.1658 213.536 57.1658 212.5C57.1658 211.464 58.0053 210.625 59.0408 210.625H71.946L80.3295 196.25L71.946 181.875H55.147L44.1197 200.788C43.5982 201.683 42.4502 201.986 41.5555 201.464C40.661 200.942 40.3588 199.794 40.8803 198.9L52.45 179.056Z" fill="#0074A3"/>
<path fill-rule="evenodd" clip-rule="evenodd" d="M52.5 149.375C28.6825 149.375 9.375 168.683 9.375 192.5C9.375 216.317 28.6825 235.625 52.5 235.625C76.317 235.625 95.625 216.317 95.625 192.5C95.625 168.683 76.317 149.375 52.5 149.375ZM5.625 192.5C5.625 166.612 26.6115 145.625 52.5 145.625C78.3882 145.625 99.375 166.611 99.375 192.5C99.375 218.388 78.3882 239.375 52.5 239.375C26.6115 239.375 5.625 218.388 5.625 192.5Z" fill="#0074A3"/>
<path fill-rule="evenodd" clip-rule="evenodd" d="M90 320C90 344.853 69.8528 365 45 365C20.147 365 0 344.853 0 320C0 295.147 20.147 275 45 275C69.8528 275 90 295.147 90 320Z" fill="#D7EFF6"/>
<path fill-rule="evenodd" clip-rule="evenodd" d="M30.3725 294.054C30.7085 293.479 31.325 293.125 31.9915 293.125H46.1078C47.1433 293.125 47.9828 293.964 47.9828 295C47.9828 296.036 47.1433 296.875 46.1078 296.875H33.0678L24.6714 311.25L33.0678 325.625H49.9L60.8815 306.845C61.4043 305.952 62.5525 305.65 63.4465 306.173C64.3405 306.696 64.6413 307.844 64.1185 308.738L52.5943 328.446C52.258 329.021 51.6418 329.375 50.9758 329.375H31.9915C31.325 329.375 30.7085 329.021 30.3725 328.446L20.881 312.196C20.5397 311.611 20.5397 310.889 20.881 310.304L30.3725 294.054Z" fill="#0074A3"/>
<path fill-rule="evenodd" clip-rule="evenodd" d="M52.45 299.056C52.786 298.479 53.4027 298.125 54.0697 298.125H73.023C73.69 298.125 74.3067 298.479 74.6427 299.056L84.1197 315.306C84.46 315.889 84.46 316.611 84.1197 317.194L74.6427 333.444C74.3067 334.021 73.69 334.375 73.023 334.375H59.0408C58.0053 334.375 57.1658 333.536 57.1658 332.5C57.1658 331.464 58.0053 330.625 59.0408 330.625H71.946L80.3295 316.25L71.946 301.875H55.147L44.1197 320.788C43.5982 321.683 42.4502 321.986 41.5555 321.464C40.661 320.942 40.3588 319.794 40.8803 318.9L52.45 299.056Z" fill="#0074A3"/>
<path fill-rule="evenodd" clip-rule="evenodd" d="M52.5 269.375C28.6825 269.375 9.375 288.683 9.375 312.5C9.375 336.317 28.6825 355.625 52.5 355.625C76.317 355.625 95.625 336.317 95.625 312.5C95.625 288.683 76.317 269.375 52.5 269.375ZM5.625 312.5C5.625 286.612 26.6115 265.625 52.5 265.625C78.3882 265.625 99.375 286.611 99.375 312.5C99.375 338.388 78.3882 359.375 52.5 359.375C26.6115 359.375 5.625 338.388 5.625 312.5Z" fill="#0074A3"/>
<path fill-rule="evenodd" clip-rule="evenodd" d="M408.125 159.75C436.084 159.75 458.75 137.084 458.75 109.125C458.75 81.1657 436.084 58.5 408.125 58.5C380.166 58.5 357.5 81.1657 357.5 109.125C357.5 137.084 380.166 159.75 408.125 159.75Z" fill="#B4E1E4"/>
<mask id="mask0_2_175" style="mask-type:alpha" maskUnits="userSpaceOnUse" x="387" y="39" width="92" height="139">
<path fill-rule="evenodd" clip-rule="evenodd" d="M387.5 39.75H478.409V177.25H387.5V39.75Z" fill="white"/>
</mask>
<g mask="url(#mask0_2_175)">
<path fill-rule="evenodd" clip-rule="evenodd" d="M466.824 79.0091L466.749 78.903C465.51 76.9459 463.535 75.6394 461.349 75.0765C459.093 74.5144 456.663 74.7503 454.501 75.9135H454.514C452.356 77.0625 450.913 78.9424 450.309 81.0458C449.716 83.1356 449.975 85.4464 451.215 87.4575L451.257 87.5092C452.5 89.4949 454.477 90.8273 456.686 91.3635C458.903 91.9515 461.377 91.7036 463.507 90.5396L463.622 90.4871C465.72 89.313 467.117 87.4575 467.7 85.4198C468.295 83.3171 468.057 81.0203 466.824 79.0091ZM416.392 85.4741C421.625 86.2826 426.326 88.6343 429.917 92.0299H429.945C430.517 92.5643 431.073 93.1523 431.588 93.741L440.567 88.8679C439.36 85.4464 439.304 81.8681 440.274 78.5111C441.554 74.019 444.659 69.9958 449.313 67.4764L449.465 67.3853C454.07 64.9412 459.302 64.433 464.026 65.6331C468.809 66.8358 473.124 69.7626 475.81 74.1229V74.1356C478.484 78.4725 479.026 83.4495 477.751 87.9289C476.478 92.4218 473.362 96.4706 468.712 98.9775L467.485 99.6563H467.361C463.059 101.577 458.332 101.878 453.988 100.805C450.422 99.918 447.151 98.049 444.59 95.3992L435.625 100.257C436.655 102.816 437.224 105.572 437.224 108.486C437.224 111.384 436.655 114.181 435.625 116.752L444.59 121.598C447.151 118.906 450.422 117.079 453.988 116.19C458.774 114.963 464.076 115.485 468.712 118.02L469.01 118.149V118.162C473.486 120.71 476.492 124.641 477.751 129.081C479.026 133.535 478.484 138.513 475.81 142.859L475.649 143.162L475.63 143.135C472.945 147.326 468.712 150.163 464.039 151.364C459.246 152.549 453.942 152.043 449.313 149.544V149.51C444.659 146.986 441.554 142.954 440.274 138.47C439.304 135.129 439.36 131.551 440.567 128.129L431.588 123.269C431.072 123.857 430.517 124.42 429.945 124.954L429.917 124.98C426.326 128.363 421.625 130.714 416.392 131.497V141.23C420.122 141.962 423.46 143.711 426.076 146.166L426.09 146.192C429.597 149.467 431.768 154.028 431.768 159.044C431.768 164.043 429.597 168.579 426.09 171.87L426.076 171.922C422.544 175.212 417.701 177.25 412.355 177.25C407.037 177.25 402.18 175.212 398.658 171.922H398.644V171.87C395.133 168.579 392.957 164.043 392.957 159.044C392.957 154.028 395.133 149.467 398.644 146.192V146.166H398.658C401.272 143.711 404.616 141.962 408.333 141.23V131.497C403.1 130.714 398.409 128.363 394.822 124.98L394.785 124.954C390.306 120.736 387.5 114.925 387.5 108.486C387.5 102.06 390.306 96.2471 394.785 92.0299H394.822C398.409 88.6343 403.1 86.2826 408.333 85.4741V75.7819C404.616 75.0251 401.272 73.275 398.658 70.833H398.644V70.807C395.133 67.5018 392.957 62.9706 392.957 57.9545C392.957 52.965 395.133 48.394 398.644 45.1026L398.658 45.0894C402.181 41.7863 407.037 39.75 412.355 39.75C417.701 39.75 422.545 41.7863 426.076 45.0894V45.1026H426.091C429.597 48.394 431.768 52.965 431.768 57.9545C431.768 62.9706 429.597 67.5018 426.091 70.807L426.076 70.833C423.46 73.275 420.122 75.0251 416.392 75.7819V85.4741ZM421.579 99.8531C419.219 97.6448 415.961 96.2603 412.355 96.2603C408.755 96.2603 405.507 97.6448 403.151 99.8531C400.802 102.06 399.353 105.103 399.353 108.486C399.353 111.868 400.802 114.925 403.151 117.157C405.507 119.352 408.755 120.724 412.355 120.724C415.961 120.724 419.219 119.352 421.579 117.157C423.933 114.925 425.381 111.868 425.381 108.486C425.381 105.103 423.933 102.06 421.579 99.8531ZM461.349 141.918C463.577 141.368 465.593 140.028 466.824 137.999L466.99 137.703C468.085 135.782 468.285 133.56 467.7 131.591C467.11 129.486 465.665 127.619 463.507 126.458L463.38 126.377C461.278 125.293 458.885 125.058 456.686 125.62C454.449 126.144 452.439 127.541 451.215 129.553C449.975 131.551 449.716 133.848 450.309 135.964C450.923 138.045 452.356 139.924 454.501 141.098H454.514C456.663 142.258 459.093 142.465 461.349 141.918ZM412.355 167.482C414.862 167.482 417.112 166.524 418.732 165.025L418.751 164.982C420.373 163.485 421.363 161.369 421.363 159.044C421.363 156.693 420.373 154.587 418.751 153.063H418.732C417.112 151.522 414.862 150.59 412.355 150.59C409.854 150.59 407.623 151.522 406.023 153.063H405.981C404.366 154.587 403.363 156.693 403.363 159.044C403.363 161.369 404.366 163.485 405.981 164.982L406.023 165.025C407.623 166.524 409.854 167.482 412.355 167.482ZM418.732 51.9853C417.112 50.4582 414.862 49.5178 412.355 49.5178C409.854 49.5178 407.623 50.4582 406.023 51.9853H405.981C404.366 53.5012 403.363 55.6168 403.363 57.9545C403.363 60.306 404.366 62.4084 405.981 63.909L406.023 63.9508C407.623 65.4651 409.854 66.3923 412.355 66.3923C414.862 66.3923 417.112 65.4651 418.732 63.9508L418.751 63.909C420.373 62.4084 421.363 60.306 421.363 57.9545C421.363 55.6168 420.373 53.5012 418.751 51.9853H418.732Z" fill="#0074A2"/>
</g>
<path fill-rule="evenodd" clip-rule="evenodd" d="M531.5 140H591.5V80H531.5V140Z" fill="#D7EFF6"/>
<path fill-rule="evenodd" clip-rule="evenodd" d="M509 100H569V40H509V100Z" fill="#D7EFF6"/>
<path fill-rule="evenodd" clip-rule="evenodd" d="M513.75 110C513.75 109 514.5 108 515.5 108H528C529 108 530 108.75 530 110C530 111.25 529.25 112 528 112H515.5C514.5 111.75 513.75 111 513.75 110Z" fill="#0074A2"/>
<path fill-rule="evenodd" clip-rule="evenodd" d="M599.25 68H538.25C537.25 68 536.25 68.75 536.25 70V130C536.25 131 537 132 538.25 132H559H579H599.25C600.25 132 601.25 131.25 601.25 130V70C601 69 600.25 68 599.25 68ZM561 108V91.75H577.25V108H561ZM577 111.75V128H560.75V111.75H577V111.75ZM540.25 91.75H557.25V108H540.25V91.75ZM561 88V71.75H577.25V88H561ZM581 91.75H597.5V108H581V91.75V91.75ZM597.25 88H580.75V71.75H597.25V88ZM557 71.75V88H540V71.75H557ZM540.25 111.75H557.25V128H540.25V111.75ZM581 128V111.75H597.5V128H581Z" fill="#0074A2"/>
<path fill-rule="evenodd" clip-rule="evenodd" d="M578.75 45.5H515.5C514.5 45.5 513.5 46.25 513.5 47.5V110C513.5 111 514.25 112 515.5 112C516.5 112 517.5 111.25 517.5 110V91.5H529C530 91.5 531 90.75 531 89.5C531 88.25 530.25 87.5 529 87.5H517.5V71.5H529C530 71.5 531 70.75 531 69.5C531 68.5 530.25 67.5 529 67.5H517.5V49.25H537V59.75C537 60.75 537.75 61.75 539 61.75C540 61.75 541 61 541 59.75V49.25H557V59.75C557 60.75 557.75 61.75 559 61.75C560 61.75 561 61 561 59.75V49.25H577.5V59.75C577.5 60.75 578.25 61.75 579.5 61.75C580.5 61.75 581.5 61 581.5 59.75V47.25C580.75 46.25 580 45.5 578.75 45.5Z" fill="#0074A2"/>
<path fill-rule="evenodd" clip-rule="evenodd" d="M869.302 489.016C869.302 511.417 851.143 529.576 828.742 529.576C806.341 529.576 788.182 511.417 788.182 489.016C788.182 466.615 806.341 448.456 828.742 448.456C851.143 448.456 869.302 466.615 869.302 489.016Z" fill="#D7EFF6"/>
<path fill-rule="evenodd" clip-rule="evenodd" d="M814.195 439.791C815.231 439.791 816.07 440.631 816.07 441.666V474.226C816.07 489.384 812.198 501.095 806.333 512.697C805.866 513.621 804.738 513.992 803.814 513.524C802.89 513.057 802.52 511.929 802.987 511.005C808.662 499.777 812.32 488.648 812.32 474.226V441.666C812.32 440.631 813.16 439.791 814.195 439.791Z" fill="#0074A2"/>
<path fill-rule="evenodd" clip-rule="evenodd" d="M788.764 496.072C792.684 496.072 795.862 492.894 795.862 488.973C795.862 485.053 792.684 481.876 788.764 481.876C784.844 481.876 781.666 485.053 781.666 488.973C781.666 492.894 784.844 496.072 788.764 496.072Z" fill="#D7EFF6"/>
<path fill-rule="evenodd" clip-rule="evenodd" d="M779.791 488.973C779.791 484.018 783.808 480.001 788.764 480.001C793.72 480.001 797.737 484.018 797.737 488.973C797.737 493.929 793.72 497.947 788.764 497.947C783.808 497.947 779.791 493.929 779.791 488.973ZM788.764 483.751C785.879 483.751 783.541 486.089 783.541 488.973C783.541 491.858 785.879 494.197 788.764 494.197C791.649 494.197 793.987 491.858 793.987 488.973C793.987 486.089 791.649 483.751 788.764 483.751Z" fill="#0074A2"/>
<path fill-rule="evenodd" clip-rule="evenodd" d="M799.332 439.791C800.368 439.791 801.207 440.631 801.207 441.666V457.627C801.085 466.804 800.897 475.575 794.977 483.863C794.376 484.706 793.205 484.9 792.362 484.299C791.519 483.697 791.324 482.526 791.926 481.683C797.076 474.473 797.334 466.861 797.457 457.589V441.666C797.457 440.631 798.297 439.791 799.332 439.791Z" fill="#0074A2"/>
<path fill-rule="evenodd" clip-rule="evenodd" d="M802.416 523.539H798.32C796.128 523.539 794.334 521.745 794.334 519.553V515.457C794.334 513.264 796.128 511.471 798.32 511.471H802.416C804.609 511.471 806.402 513.264 806.402 515.457V519.553C806.402 521.745 804.609 523.539 802.416 523.539Z" fill="#D7EFF6"/>
<path fill-rule="evenodd" clip-rule="evenodd" d="M798.32 513.346C797.163 513.346 796.209 514.3 796.209 515.457V519.553C796.209 520.71 797.163 521.664 798.32 521.664H802.416C803.573 521.664 804.527 520.71 804.527 519.553V515.457C804.527 514.3 803.573 513.346 802.416 513.346H798.32ZM792.459 515.457C792.459 512.229 795.092 509.596 798.32 509.596H802.416C805.645 509.596 808.277 512.229 808.277 515.457V519.553C808.277 522.781 805.645 525.414 802.416 525.414H798.32C795.092 525.414 792.459 522.781 792.459 519.553V515.457Z" fill="#0074A2"/>
<path fill-rule="evenodd" clip-rule="evenodd" d="M843.57 439.791C844.606 439.791 845.445 440.631 845.445 441.666V474.226C845.445 488.648 849.103 499.777 854.779 511.005C855.246 511.929 854.876 513.057 853.952 513.524C853.028 513.992 851.9 513.621 851.432 512.697C845.568 501.095 841.695 489.384 841.695 474.226V441.666C841.695 440.631 842.535 439.791 843.57 439.791Z" fill="#0074A2"/>
<path fill-rule="evenodd" clip-rule="evenodd" d="M828.883 536.225C824.962 536.225 821.785 533.047 821.785 529.126C821.785 525.207 824.962 522.029 828.883 522.029C832.803 522.029 835.981 525.207 835.981 529.126C835.981 533.047 832.803 536.225 828.883 536.225Z" fill="#D7EFF6"/>
<path fill-rule="evenodd" clip-rule="evenodd" d="M828.883 523.904C825.998 523.904 823.66 526.242 823.66 529.126C823.66 532.011 825.998 534.35 828.883 534.35C831.767 534.35 834.106 532.011 834.106 529.126C834.106 526.242 831.767 523.904 828.883 523.904ZM819.91 529.126C819.91 524.171 823.927 520.154 828.883 520.154C833.838 520.154 837.856 524.171 837.856 529.126C837.856 534.082 833.838 538.1 828.883 538.1C823.927 538.1 819.91 534.082 819.91 529.126Z" fill="#0074A2"/>
<path fill-rule="evenodd" clip-rule="evenodd" d="M828.883 439.791C829.918 439.791 830.758 440.631 830.758 441.666V522.028C830.758 523.064 829.918 523.903 828.883 523.903C827.847 523.903 827.008 523.064 827.008 522.028V441.666C827.008 440.631 827.847 439.791 828.883 439.791Z" fill="#0074A2"/>
<path fill-rule="evenodd" clip-rule="evenodd" d="M869.001 496.072C865.081 496.072 861.904 492.894 861.904 488.973C861.904 485.053 865.081 481.876 869.001 481.876C872.922 481.876 876.1 485.053 876.1 488.973C876.1 492.894 872.922 496.072 869.001 496.072Z" fill="#D7EFF6"/>
<path fill-rule="evenodd" clip-rule="evenodd" d="M869.001 483.751C866.117 483.751 863.779 486.089 863.779 488.973C863.779 491.858 866.117 494.197 869.001 494.197C871.886 494.197 874.225 491.858 874.225 488.973C874.225 486.089 871.886 483.751 869.001 483.751ZM860.029 488.973C860.029 484.018 864.046 480.001 869.001 480.001C873.957 480.001 877.975 484.018 877.975 488.973C877.975 493.929 873.957 497.947 869.001 497.947C864.046 497.947 860.029 493.929 860.029 488.973Z" fill="#0074A2"/>
<path fill-rule="evenodd" clip-rule="evenodd" d="M858.433 439.791C859.469 439.791 860.308 440.631 860.308 441.666V457.589C860.432 466.861 860.689 474.473 865.839 481.683C866.441 482.526 866.246 483.697 865.404 484.299C864.561 484.9 863.39 484.706 862.788 483.863C856.868 475.575 856.681 466.804 856.558 457.627L856.558 457.602H856.558V441.666C856.558 440.631 857.398 439.791 858.433 439.791Z" fill="#0074A2"/>
<path fill-rule="evenodd" clip-rule="evenodd" d="M855.349 523.539H859.445C861.638 523.539 863.431 521.745 863.431 519.553V515.457C863.431 513.264 861.638 511.471 859.445 511.471H855.349C853.157 511.471 851.363 513.264 851.363 515.457V519.553C851.363 521.745 853.157 523.539 855.349 523.539Z" fill="#D7EFF6"/>
<path fill-rule="evenodd" clip-rule="evenodd" d="M849.488 515.457C849.488 512.229 852.121 509.596 855.349 509.596H859.446C862.673 509.596 865.307 512.229 865.307 515.457V519.553C865.307 522.781 862.673 525.414 859.446 525.414H855.349C852.121 525.414 849.488 522.781 849.488 519.553V515.457ZM855.349 513.346C854.192 513.346 853.238 514.3 853.238 515.457V519.553C853.238 520.71 854.192 521.664 855.349 521.664H859.446C860.602 521.664 861.557 520.71 861.557 519.553V515.457C861.557 514.3 860.602 513.346 859.446 513.346H855.349Z" fill="#0074A2"/>
<g clip-path="url(#clip0_2_175)">
<path d="M1113.32 225.943C1113.03 225.943 1112.95 225.796 1113.1 225.577L1114.63 223.606C1114.78 223.387 1115.15 223.24 1115.44 223.24H1141.51C1141.8 223.24 1141.87 223.46 1141.73 223.679L1140.49 225.577C1140.34 225.796 1139.97 226.016 1139.76 226.016L1113.32 225.943Z" fill="#00ACD7"/>
<path d="M1102.29 232.661C1102 232.661 1101.93 232.515 1102.07 232.296L1103.61 230.324C1103.75 230.105 1104.12 229.959 1104.41 229.959H1137.71C1138 229.959 1138.15 230.178 1138.08 230.397L1137.49 232.15C1137.42 232.442 1137.13 232.588 1136.83 232.588L1102.29 232.661Z" fill="#00ACD7"/>
<path d="M1119.96 239.38C1119.67 239.38 1119.6 239.161 1119.75 238.942L1120.77 237.116C1120.91 236.897 1121.21 236.678 1121.5 236.678H1136.1C1136.4 236.678 1136.54 236.897 1136.54 237.189L1136.4 238.942C1136.4 239.234 1136.1 239.453 1135.89 239.453L1119.96 239.38Z" fill="#00ACD7"/>
<path d="M1195.77 224.628C1191.17 225.796 1188.03 226.673 1183.5 227.841C1182.4 228.133 1182.33 228.206 1181.38 227.111C1180.29 225.87 1179.48 225.066 1177.95 224.336C1173.35 222.072 1168.89 222.729 1164.73 225.431C1159.77 228.645 1157.21 233.391 1157.28 239.307C1157.36 245.149 1161.37 249.969 1167.14 250.772C1172.11 251.429 1176.27 249.677 1179.56 245.952C1180.21 245.149 1180.8 244.273 1181.53 243.25C1178.9 243.25 1175.61 243.25 1167.43 243.25C1165.9 243.25 1165.53 242.301 1166.05 241.059C1167 238.796 1168.75 234.998 1169.77 233.099C1169.99 232.661 1170.5 231.931 1171.6 231.931C1175.32 231.931 1189.05 231.931 1198.18 231.931C1198.03 233.903 1198.03 235.874 1197.74 237.846C1196.94 243.104 1194.96 247.924 1191.75 252.16C1186.49 259.097 1179.63 263.406 1170.94 264.574C1163.78 265.524 1157.14 264.136 1151.29 259.755C1145.89 255.665 1142.82 250.261 1142.02 243.542C1141.07 235.582 1143.41 228.425 1148.23 222.145C1153.41 215.353 1160.28 211.045 1168.67 209.511C1175.54 208.27 1182.11 209.073 1188.03 213.09C1191.9 215.646 1194.67 219.151 1196.5 223.387C1196.94 224.044 1196.64 224.409 1195.77 224.628Z" fill="#00ACD7"/>
<path d="M1219.94 265.013C1213.3 264.867 1207.23 262.968 1202.12 258.586C1197.81 254.862 1195.11 250.115 1194.23 244.492C1192.92 236.24 1195.18 228.937 1200.15 222.437C1205.48 215.426 1211.91 211.775 1220.6 210.241C1228.05 208.927 1235.06 209.657 1241.41 213.966C1247.18 217.909 1250.76 223.24 1251.71 230.251C1252.95 240.11 1250.1 248.143 1243.31 255.008C1238.49 259.901 1232.57 262.968 1225.78 264.355C1223.81 264.721 1221.84 264.794 1219.94 265.013ZM1237.32 235.509C1237.25 234.56 1237.25 233.83 1237.1 233.099C1235.79 225.869 1229.14 221.78 1222.2 223.387C1215.41 224.92 1211.03 229.229 1209.42 236.093C1208.11 241.79 1210.89 247.559 1216.14 249.896C1220.16 251.648 1224.18 251.429 1228.05 249.458C1233.82 246.463 1236.96 241.79 1237.32 235.509Z" fill="#00ACD7"/>
</g>
<path d="M318 195L303 186.34V203.66L318 195ZM118 196.5H304.5V193.5H118V196.5Z" fill="#173361"/>
<path d="M323 315L308 306.34V323.66L323 315ZM123 316.5H309.5V313.5H123V316.5Z" fill="#173361"/>
<path d="M119.13 133.204C115.914 133.204 113.382 135.736 113.382 139.252C113.382 142.768 115.914 145.3 119.13 145.3C120.762 145.3 121.95 144.64 122.742 143.62V145H125.25V127.72H122.742V134.896C121.95 133.876 120.762 133.204 119.13 133.204ZM119.43 135.568C121.506 135.568 122.898 137.152 122.898 139.252C122.898 141.352 121.506 142.936 119.43 142.936C117.27 142.936 115.962 141.268 115.962 139.252C115.962 137.236 117.27 135.568 119.43 135.568ZM140.227 133.504H137.719V134.896C136.927 133.876 135.739 133.204 134.107 133.204C130.891 133.204 128.359 135.736 128.359 139.252C128.359 142.768 130.891 145.3 134.107 145.3C135.739 145.3 136.927 144.64 137.719 143.62V145H140.227V133.504ZM134.407 135.568C136.483 135.568 137.875 137.152 137.875 139.252C137.875 141.352 136.483 142.936 134.407 142.936C132.247 142.936 130.939 141.268 130.939 139.252C130.939 137.236 132.247 135.568 134.407 135.568ZM151.999 133.504H147.595V130.024H145.075V133.504H142.783V135.784H145.075V140.836C145.075 143.896 146.599 145.3 149.203 145.3C150.643 145.3 151.807 144.784 152.731 144.16L151.735 142.156C151.051 142.588 150.199 142.936 149.419 142.936C148.411 142.936 147.595 142.336 147.595 140.788V135.784H151.999V133.504ZM166.102 133.504H163.594V134.896C162.802 133.876 161.614 133.204 159.982 133.204C156.766 133.204 154.234 135.736 154.234 139.252C154.234 142.768 156.766 145.3 159.982 145.3C161.614 145.3 162.802 144.64 163.594 143.62V145H166.102V133.504ZM160.282 135.568C162.358 135.568 163.75 137.152 163.75 139.252C163.75 141.352 162.358 142.936 160.282 142.936C158.122 142.936 156.814 141.268 156.814 139.252C156.814 137.236 158.122 135.568 160.282 135.568ZM174.538 133.204C171.91 133.204 169.21 135.412 169.21 139.132C169.21 142.852 171.91 145.06 174.538 145.06C176.206 145.06 177.502 144.484 178.366 143.38V144.304C178.366 146.44 177.07 147.736 174.718 147.736C173.314 147.736 171.982 147.28 170.818 146.572L169.906 148.696C171.118 149.56 173.002 150.028 174.718 150.028C178.558 150.028 180.886 147.808 180.886 144.196V133.504H178.366V134.884C177.502 133.792 176.206 133.204 174.538 133.204ZM175.186 135.568C177.214 135.568 178.582 137.116 178.582 139.132C178.582 141.148 177.214 142.696 175.186 142.696C173.062 142.696 171.79 141.064 171.79 139.132C171.79 137.188 173.062 135.568 175.186 135.568ZM189.723 133.204C186.339 133.204 183.999 135.652 183.999 139.252C183.999 142.9 186.435 145.3 189.879 145.3C191.619 145.3 193.203 144.88 194.607 143.68L193.359 141.892C192.411 142.648 191.187 143.104 190.035 143.104C188.403 143.104 186.951 142.24 186.615 140.176H195.111C195.135 139.888 195.159 139.564 195.159 139.24C195.147 135.652 192.939 133.204 189.723 133.204ZM189.675 135.436C191.271 135.436 192.315 136.48 192.591 138.268H186.627C186.891 136.588 187.887 135.436 189.675 135.436ZM204.281 133.204C203.105 133.204 201.677 133.552 200.753 134.908V133.504H198.257V145H200.777V138.628C200.777 136.66 202.133 135.592 203.753 135.592C205.433 135.592 206.429 136.672 206.429 138.604V145H208.949V137.776C208.949 135.088 207.017 133.204 204.281 133.204ZM224.454 133.204C220.794 133.204 218.406 135.808 218.406 139.252C218.406 142.696 220.794 145.3 224.454 145.3C226.17 145.3 227.706 144.676 228.75 143.464L227.202 141.736C226.47 142.42 225.486 142.936 224.382 142.936C222.45 142.936 220.986 141.424 220.986 139.252C220.986 137.08 222.45 135.568 224.382 135.568C225.486 135.568 226.338 136 227.142 136.756L228.75 135.04C227.73 133.828 226.17 133.204 224.454 133.204ZM236.679 133.204C233.127 133.204 230.499 135.808 230.499 139.252C230.499 142.696 233.127 145.3 236.679 145.3C240.231 145.3 242.871 142.696 242.871 139.252C242.871 135.808 240.231 133.204 236.679 133.204ZM236.679 135.568C238.731 135.568 240.291 137.08 240.291 139.252C240.291 141.424 238.731 142.936 236.679 142.936C234.627 142.936 233.079 141.424 233.079 139.252C233.079 137.08 234.627 135.568 236.679 135.568ZM252 133.204C250.824 133.204 249.396 133.552 248.472 134.908V133.504H245.976V145H248.496V138.628C248.496 136.66 249.852 135.592 251.472 135.592C253.152 135.592 254.148 136.672 254.148 138.604V145H256.668V137.776C256.668 135.088 254.736 133.204 252 133.204ZM266.508 133.204C265.332 133.204 263.904 133.552 262.98 134.908V133.504H260.484V145H263.004V138.628C263.004 136.66 264.36 135.592 265.98 135.592C267.66 135.592 268.656 136.672 268.656 138.604V145H271.176V137.776C271.176 135.088 269.244 133.204 266.508 133.204ZM279.887 133.204C276.503 133.204 274.163 135.652 274.163 139.252C274.163 142.9 276.599 145.3 280.043 145.3C281.783 145.3 283.367 144.88 284.771 143.68L283.523 141.892C282.575 142.648 281.351 143.104 280.199 143.104C278.567 143.104 277.115 142.24 276.779 140.176H285.275C285.299 139.888 285.323 139.564 285.323 139.24C285.311 135.652 283.103 133.204 279.887 133.204ZM279.839 135.436C281.435 135.436 282.479 136.48 282.755 138.268H276.791C277.055 136.588 278.051 135.436 279.839 135.436ZM293.641 133.204C289.981 133.204 287.593 135.808 287.593 139.252C287.593 142.696 289.981 145.3 293.641 145.3C295.357 145.3 296.893 144.676 297.937 143.464L296.389 141.736C295.657 142.42 294.673 142.936 293.569 142.936C291.637 142.936 290.173 141.424 290.173 139.252C290.173 137.08 291.637 135.568 293.569 135.568C294.673 135.568 295.525 136 296.329 136.756L297.937 135.04C296.917 133.828 295.357 133.204 293.641 133.204ZM308.702 133.504H304.298V130.024H301.778V133.504H299.486V135.784H301.778V140.836C301.778 143.896 303.302 145.3 305.906 145.3C307.346 145.3 308.51 144.784 309.434 144.16L308.438 142.156C307.754 142.588 306.902 142.936 306.122 142.936C305.114 142.936 304.298 142.336 304.298 140.788V135.784H308.702V133.504ZM317.117 133.204C313.565 133.204 310.937 135.808 310.937 139.252C310.937 142.696 313.565 145.3 317.117 145.3C320.669 145.3 323.309 142.696 323.309 139.252C323.309 135.808 320.669 133.204 317.117 133.204ZM317.117 135.568C319.169 135.568 320.729 137.08 320.729 139.252C320.729 141.424 319.169 142.936 317.117 142.936C315.065 142.936 313.517 141.424 313.517 139.252C313.517 137.08 315.065 135.568 317.117 135.568ZM332.233 133.204C330.829 133.204 329.653 133.708 328.897 134.8V133.504H326.413V145H328.921V138.676C328.921 136.72 330.061 135.592 331.657 135.592C332.269 135.592 333.037 135.736 333.565 136.012L334.165 133.528C333.589 133.3 333.001 133.204 332.233 133.204ZM149.224 157.708C145.156 159.4 142.468 163.384 142.468 168.184C142.468 172.984 145.156 176.968 149.224 178.66L150.112 176.344C146.992 174.904 145.168 171.7 145.168 168.184C145.168 164.668 146.992 161.464 150.112 160.024L149.224 157.708ZM161.657 164.428C160.469 163.66 158.801 163.216 157.001 163.216C154.073 163.216 152.249 164.62 152.249 166.9C152.249 168.748 153.605 169.924 156.149 170.272L157.349 170.428C158.717 170.62 159.341 171.052 159.341 171.7C159.341 172.564 158.441 173.104 156.725 173.104C154.853 173.104 153.761 172.564 152.933 171.928L151.769 173.812C153.449 175.06 155.513 175.288 156.701 175.288C160.013 175.288 161.933 173.74 161.933 171.532C161.933 169.564 160.445 168.496 157.937 168.136L156.749 167.956C155.693 167.8 154.853 167.572 154.853 166.768C154.853 165.952 155.657 165.4 157.025 165.4C158.453 165.4 159.881 165.952 160.577 166.384L161.657 164.428ZM172.73 163.504H168.326V160.024H165.806V163.504H163.514V165.784H165.806V170.836C165.806 173.896 167.33 175.3 169.934 175.3C171.374 175.3 172.538 174.784 173.462 174.16L172.466 172.156C171.782 172.588 170.93 172.936 170.15 172.936C169.142 172.936 168.326 172.336 168.326 170.788V165.784H172.73V163.504ZM181.144 163.204C177.592 163.204 174.964 165.808 174.964 169.252C174.964 172.696 177.592 175.3 181.144 175.3C184.696 175.3 187.336 172.696 187.336 169.252C187.336 165.808 184.696 163.204 181.144 163.204ZM181.144 165.568C183.196 165.568 184.756 167.08 184.756 169.252C184.756 171.424 183.196 172.936 181.144 172.936C179.092 172.936 177.544 171.424 177.544 169.252C177.544 167.08 179.092 165.568 181.144 165.568ZM195.661 163.204C192.001 163.204 189.613 165.808 189.613 169.252C189.613 172.696 192.001 175.3 195.661 175.3C197.377 175.3 198.913 174.676 199.957 173.464L198.409 171.736C197.677 172.42 196.693 172.936 195.589 172.936C193.657 172.936 192.193 171.424 192.193 169.252C192.193 167.08 193.657 165.568 195.589 165.568C196.693 165.568 197.545 166 198.349 166.756L199.957 165.04C198.937 163.828 197.377 163.204 195.661 163.204ZM205.289 157.72H202.769V175H205.289V170.152H206.537L210.365 175H213.545L208.685 168.916L213.497 163.504H210.341L206.549 167.872H205.289V157.72ZM229.753 163.504H225.349V160.024H222.829V163.504H220.537V165.784H222.829V170.836C222.829 173.896 224.353 175.3 226.957 175.3C228.397 175.3 229.561 174.784 230.485 174.16L229.489 172.156C228.805 172.588 227.953 172.936 227.173 172.936C226.165 172.936 225.349 172.336 225.349 170.788V165.784H229.753V163.504ZM238.636 163.204C237.232 163.204 236.056 163.708 235.3 164.8V163.504H232.816V175H235.324V168.676C235.324 166.72 236.464 165.592 238.06 165.592C238.672 165.592 239.44 165.736 239.968 166.012L240.568 163.528C239.992 163.3 239.404 163.204 238.636 163.204ZM253.699 163.504H251.191V164.896C250.399 163.876 249.211 163.204 247.579 163.204C244.363 163.204 241.831 165.736 241.831 169.252C241.831 172.768 244.363 175.3 247.579 175.3C249.211 175.3 250.399 174.64 251.191 173.62V175H253.699V163.504ZM247.879 165.568C249.955 165.568 251.347 167.152 251.347 169.252C251.347 171.352 249.955 172.936 247.879 172.936C245.719 172.936 244.411 171.268 244.411 169.252C244.411 167.236 245.719 165.568 247.879 165.568ZM262.556 163.204C259.34 163.204 256.808 165.736 256.808 169.252C256.808 172.768 259.34 175.3 262.556 175.3C264.188 175.3 265.376 174.64 266.168 173.62V175H268.676V157.72H266.168V164.896C265.376 163.876 264.188 163.204 262.556 163.204ZM262.856 165.568C264.932 165.568 266.324 167.152 266.324 169.252C266.324 171.352 264.932 172.936 262.856 172.936C260.696 172.936 259.388 171.268 259.388 169.252C259.388 167.236 260.696 165.568 262.856 165.568ZM277.509 163.204C274.125 163.204 271.785 165.652 271.785 169.252C271.785 172.9 274.221 175.3 277.665 175.3C279.405 175.3 280.989 174.88 282.393 173.68L281.145 171.892C280.197 172.648 278.973 173.104 277.821 173.104C276.189 173.104 274.737 172.24 274.401 170.176H282.897C282.921 169.888 282.945 169.564 282.945 169.24C282.933 165.652 280.725 163.204 277.509 163.204ZM277.461 165.436C279.057 165.436 280.101 166.48 280.377 168.268H274.413C274.677 166.588 275.673 165.436 277.461 165.436ZM294.946 164.428C293.758 163.66 292.09 163.216 290.29 163.216C287.362 163.216 285.538 164.62 285.538 166.9C285.538 168.748 286.894 169.924 289.438 170.272L290.638 170.428C292.006 170.62 292.63 171.052 292.63 171.7C292.63 172.564 291.73 173.104 290.014 173.104C288.142 173.104 287.05 172.564 286.222 171.928L285.058 173.812C286.738 175.06 288.802 175.288 289.99 175.288C293.302 175.288 295.222 173.74 295.222 171.532C295.222 169.564 293.734 168.496 291.226 168.136L290.038 167.956C288.982 167.8 288.142 167.572 288.142 166.768C288.142 165.952 288.946 165.4 290.314 165.4C291.742 165.4 293.17 165.952 293.866 166.384L294.946 164.428ZM297.78 178.636C301.848 176.944 304.536 172.96 304.536 168.16C304.536 163.36 301.848 159.376 297.78 157.684L296.892 160C300.012 161.44 301.836 164.644 301.836 168.16C301.836 171.676 300.012 174.88 296.892 176.32L297.78 178.636Z" fill="#173361"/>
<path d="M119.13 334.204C115.914 334.204 113.382 336.736 113.382 340.252C113.382 343.768 115.914 346.3 119.13 346.3C120.762 346.3 121.95 345.64 122.742 344.62V346H125.25V328.72H122.742V335.896C121.95 334.876 120.762 334.204 119.13 334.204ZM119.43 336.568C121.506 336.568 122.898 338.152 122.898 340.252C122.898 342.352 121.506 343.936 119.43 343.936C117.27 343.936 115.962 342.268 115.962 340.252C115.962 338.236 117.27 336.568 119.43 336.568ZM140.227 334.504H137.719V335.896C136.927 334.876 135.739 334.204 134.107 334.204C130.891 334.204 128.359 336.736 128.359 340.252C128.359 343.768 130.891 346.3 134.107 346.3C135.739 346.3 136.927 345.64 137.719 344.62V346H140.227V334.504ZM134.407 336.568C136.483 336.568 137.875 338.152 137.875 340.252C137.875 342.352 136.483 343.936 134.407 343.936C132.247 343.936 130.939 342.268 130.939 340.252C130.939 338.236 132.247 336.568 134.407 336.568ZM151.999 334.504H147.595V331.024H145.075V334.504H142.783V336.784H145.075V341.836C145.075 344.896 146.599 346.3 149.203 346.3C150.643 346.3 151.807 345.784 152.731 345.16L151.735 343.156C151.051 343.588 150.199 343.936 149.419 343.936C148.411 343.936 147.595 343.336 147.595 341.788V336.784H151.999V334.504ZM166.102 334.504H163.594V335.896C162.802 334.876 161.614 334.204 159.982 334.204C156.766 334.204 154.234 336.736 154.234 340.252C154.234 343.768 156.766 346.3 159.982 346.3C161.614 346.3 162.802 345.64 163.594 344.62V346H166.102V334.504ZM160.282 336.568C162.358 336.568 163.75 338.152 163.75 340.252C163.75 342.352 162.358 343.936 160.282 343.936C158.122 343.936 156.814 342.268 156.814 340.252C156.814 338.236 158.122 336.568 160.282 336.568ZM174.538 334.204C171.91 334.204 169.21 336.412 169.21 340.132C169.21 343.852 171.91 346.06 174.538 346.06C176.206 346.06 177.502 345.484 178.366 344.38V345.304C178.366 347.44 177.07 348.736 174.718 348.736C173.314 348.736 171.982 348.28 170.818 347.572L169.906 349.696C171.118 350.56 173.002 351.028 174.718 351.028C178.558 351.028 180.886 348.808 180.886 345.196V334.504H178.366V335.884C177.502 334.792 176.206 334.204 174.538 334.204ZM175.186 336.568C177.214 336.568 178.582 338.116 178.582 340.132C178.582 342.148 177.214 343.696 175.186 343.696C173.062 343.696 171.79 342.064 171.79 340.132C171.79 338.188 173.062 336.568 175.186 336.568ZM189.723 334.204C186.339 334.204 183.999 336.652 183.999 340.252C183.999 343.9 186.435 346.3 189.879 346.3C191.619 346.3 193.203 345.88 194.607 344.68L193.359 342.892C192.411 343.648 191.187 344.104 190.035 344.104C188.403 344.104 186.951 343.24 186.615 341.176H195.111C195.135 340.888 195.159 340.564 195.159 340.24C195.147 336.652 192.939 334.204 189.723 334.204ZM189.675 336.436C191.271 336.436 192.315 337.48 192.591 339.268H186.627C186.891 337.588 187.887 336.436 189.675 336.436ZM204.281 334.204C203.105 334.204 201.677 334.552 200.753 335.908V334.504H198.257V346H200.777V339.628C200.777 337.66 202.133 336.592 203.753 336.592C205.433 336.592 206.429 337.672 206.429 339.604V346H208.949V338.776C208.949 336.088 207.017 334.204 204.281 334.204ZM224.454 334.204C220.794 334.204 218.406 336.808 218.406 340.252C218.406 343.696 220.794 346.3 224.454 346.3C226.17 346.3 227.706 345.676 228.75 344.464L227.202 342.736C226.47 343.42 225.486 343.936 224.382 343.936C222.45 343.936 220.986 342.424 220.986 340.252C220.986 338.08 222.45 336.568 224.382 336.568C225.486 336.568 226.338 337 227.142 337.756L228.75 336.04C227.73 334.828 226.17 334.204 224.454 334.204ZM236.679 334.204C233.127 334.204 230.499 336.808 230.499 340.252C230.499 343.696 233.127 346.3 236.679 346.3C240.231 346.3 242.871 343.696 242.871 340.252C242.871 336.808 240.231 334.204 236.679 334.204ZM236.679 336.568C238.731 336.568 240.291 338.08 240.291 340.252C240.291 342.424 238.731 343.936 236.679 343.936C234.627 343.936 233.079 342.424 233.079 340.252C233.079 338.08 234.627 336.568 236.679 336.568ZM252 334.204C250.824 334.204 249.396 334.552 248.472 335.908V334.504H245.976V346H248.496V339.628C248.496 337.66 249.852 336.592 251.472 336.592C253.152 336.592 254.148 337.672 254.148 339.604V346H256.668V338.776C256.668 336.088 254.736 334.204 252 334.204ZM266.508 334.204C265.332 334.204 263.904 334.552 262.98 335.908V334.504H260.484V346H263.004V339.628C263.004 337.66 264.36 336.592 265.98 336.592C267.66 336.592 268.656 337.672 268.656 339.604V346H271.176V338.776C271.176 336.088 269.244 334.204 266.508 334.204ZM279.887 334.204C276.503 334.204 274.163 336.652 274.163 340.252C274.163 343.9 276.599 346.3 280.043 346.3C281.783 346.3 283.367 345.88 284.771 344.68L283.523 342.892C282.575 343.648 281.351 344.104 280.199 344.104C278.567 344.104 277.115 343.24 276.779 341.176H285.275C285.299 340.888 285.323 340.564 285.323 340.24C285.311 336.652 283.103 334.204 279.887 334.204ZM279.839 336.436C281.435 336.436 282.479 337.48 282.755 339.268H276.791C277.055 337.588 278.051 336.436 279.839 336.436ZM293.641 334.204C289.981 334.204 287.593 336.808 287.593 340.252C287.593 343.696 289.981 346.3 293.641 346.3C295.357 346.3 296.893 345.676 297.937 344.464L296.389 342.736C295.657 343.42 294.673 343.936 293.569 343.936C291.637 343.936 290.173 342.424 290.173 340.252C290.173 338.08 291.637 336.568 293.569 336.568C294.673 336.568 295.525 337 296.329 337.756L297.937 336.04C296.917 334.828 295.357 334.204 293.641 334.204ZM308.702 334.504H304.298V331.024H301.778V334.504H299.486V336.784H301.778V341.836C301.778 344.896 303.302 346.3 305.906 346.3C307.346 346.3 308.51 345.784 309.434 345.16L308.438 343.156C307.754 343.588 306.902 343.936 306.122 343.936C305.114 343.936 304.298 343.336 304.298 341.788V336.784H308.702V334.504ZM317.117 334.204C313.565 334.204 310.937 336.808 310.937 340.252C310.937 343.696 313.565 346.3 317.117 346.3C320.669 346.3 323.309 343.696 323.309 340.252C323.309 336.808 320.669 334.204 317.117 334.204ZM317.117 336.568C319.169 336.568 320.729 338.08 320.729 340.252C320.729 342.424 319.169 343.936 317.117 343.936C315.065 343.936 313.517 342.424 313.517 340.252C313.517 338.08 315.065 336.568 317.117 336.568ZM332.233 334.204C330.829 334.204 329.653 334.708 328.897 335.8V334.504H326.413V346H328.921V339.676C328.921 337.72 330.061 336.592 331.657 336.592C332.269 336.592 333.037 336.736 333.565 337.012L334.165 334.528C333.589 334.3 333.001 334.204 332.233 334.204ZM190.755 358.708C186.687 360.4 183.999 364.384 183.999 369.184C183.999 373.984 186.687 377.968 190.755 379.66L191.643 377.344C188.523 375.904 186.699 372.7 186.699 369.184C186.699 365.668 188.523 362.464 191.643 361.024L190.755 358.708ZM205.055 364.504H202.535V370.9C202.535 373.12 201.299 373.936 199.727 373.936C198.155 373.936 196.919 373.12 196.919 370.9V364.504H194.399V371.128C194.399 374.788 197.027 376.3 199.727 376.3C202.415 376.3 205.055 374.788 205.055 371.128V364.504ZM217.767 365.428C216.579 364.66 214.911 364.216 213.111 364.216C210.183 364.216 208.359 365.62 208.359 367.9C208.359 369.748 209.715 370.924 212.259 371.272L213.459 371.428C214.827 371.62 215.451 372.052 215.451 372.7C215.451 373.564 214.551 374.104 212.835 374.104C210.963 374.104 209.871 373.564 209.043 372.928L207.879 374.812C209.559 376.06 211.623 376.288 212.811 376.288C216.123 376.288 218.043 374.74 218.043 372.532C218.043 370.564 216.555 369.496 214.047 369.136L212.859 368.956C211.803 368.8 210.963 368.572 210.963 367.768C210.963 366.952 211.767 366.4 213.135 366.4C214.563 366.4 215.991 366.952 216.687 367.384L217.767 365.428ZM225.899 364.204C222.515 364.204 220.175 366.652 220.175 370.252C220.175 373.9 222.611 376.3 226.055 376.3C227.795 376.3 229.379 375.88 230.783 374.68L229.535 372.892C228.587 373.648 227.363 374.104 226.211 374.104C224.579 374.104 223.127 373.24 222.791 371.176H231.287C231.311 370.888 231.335 370.564 231.335 370.24C231.323 366.652 229.115 364.204 225.899 364.204ZM225.851 366.436C227.447 366.436 228.491 367.48 228.767 369.268H222.803C223.067 367.588 224.063 366.436 225.851 366.436ZM240.253 364.204C238.849 364.204 237.673 364.708 236.917 365.8V364.504H234.433V376H236.941V369.676C236.941 367.72 238.081 366.592 239.677 366.592C240.289 366.592 241.057 366.736 241.585 367.012L242.185 364.528C241.609 364.3 241.021 364.204 240.253 364.204ZM253.415 365.428C252.227 364.66 250.559 364.216 248.759 364.216C245.831 364.216 244.007 365.62 244.007 367.9C244.007 369.748 245.363 370.924 247.907 371.272L249.107 371.428C250.475 371.62 251.099 372.052 251.099 372.7C251.099 373.564 250.199 374.104 248.483 374.104C246.611 374.104 245.519 373.564 244.691 372.928L243.527 374.812C245.207 376.06 247.271 376.288 248.459 376.288C251.771 376.288 253.691 374.74 253.691 372.532C253.691 370.564 252.203 369.496 249.695 369.136L248.507 368.956C247.451 368.8 246.611 368.572 246.611 367.768C246.611 366.952 247.415 366.4 248.783 366.4C250.211 366.4 251.639 366.952 252.335 367.384L253.415 365.428ZM256.249 379.636C260.317 377.944 263.005 373.96 263.005 369.16C263.005 364.36 260.317 360.376 256.249 358.684L255.361 361C258.481 362.44 260.305 365.644 260.305 369.16C260.305 372.676 258.481 375.88 255.361 377.32L256.249 379.636Z" fill="#173361"/>
<path d="M355.872 193.428C354.684 192.66 353.016 192.216 351.216 192.216C348.288 192.216 346.464 193.62 346.464 195.9C346.464 197.748 347.82 198.924 350.364 199.272L351.564 199.428C352.932 199.62 353.556 200.052 353.556 200.7C353.556 201.564 352.656 202.104 350.94 202.104C349.068 202.104 347.976 201.564 347.148 200.928L345.984 202.812C347.664 204.06 349.728 204.288 350.916 204.288C354.228 204.288 356.148 202.74 356.148 200.532C356.148 198.564 354.66 197.496 352.152 197.136L350.964 196.956C349.908 196.8 349.068 196.572 349.068 195.768C349.068 194.952 349.872 194.4 351.24 194.4C352.668 194.4 354.096 194.952 354.792 195.384L355.872 193.428ZM366.945 192.504H362.541V189.024H360.021V192.504H357.729V194.784H360.021V199.836C360.021 202.896 361.545 204.3 364.149 204.3C365.589 204.3 366.753 203.784 367.677 203.16L366.681 201.156C365.997 201.588 365.145 201.936 364.365 201.936C363.357 201.936 362.541 201.336 362.541 199.788V194.784H366.945V192.504ZM375.359 192.204C371.807 192.204 369.179 194.808 369.179 198.252C369.179 201.696 371.807 204.3 375.359 204.3C378.911 204.3 381.551 201.696 381.551 198.252C381.551 194.808 378.911 192.204 375.359 192.204ZM375.359 194.568C377.411 194.568 378.971 196.08 378.971 198.252C378.971 200.424 377.411 201.936 375.359 201.936C373.307 201.936 371.759 200.424 371.759 198.252C371.759 196.08 373.307 194.568 375.359 194.568ZM389.876 192.204C386.215 192.204 383.828 194.808 383.828 198.252C383.828 201.696 386.215 204.3 389.876 204.3C391.592 204.3 393.128 203.676 394.172 202.464L392.624 200.736C391.892 201.42 390.908 201.936 389.804 201.936C387.872 201.936 386.408 200.424 386.408 198.252C386.408 196.08 387.872 194.568 389.804 194.568C390.908 194.568 391.76 195 392.564 195.756L394.172 194.04C393.152 192.828 391.592 192.204 389.876 192.204ZM399.504 186.72H396.984V204H399.504V199.152H400.752L404.58 204H407.76L402.9 197.916L407.712 192.504H404.556L400.764 196.872H399.504V186.72ZM420.586 192.504H418.078V193.896C417.286 192.876 416.098 192.204 414.466 192.204C411.25 192.204 408.718 194.736 408.718 198.252C408.718 201.768 411.25 204.3 414.466 204.3C416.098 204.3 417.286 203.64 418.078 202.62V204H420.586V192.504ZM414.766 194.568C416.842 194.568 418.234 196.152 418.234 198.252C418.234 200.352 416.842 201.936 414.766 201.936C412.606 201.936 411.298 200.268 411.298 198.252C411.298 196.236 412.606 194.568 414.766 194.568ZM430.631 192.204C428.999 192.204 427.823 192.864 427.031 193.872V192.504H424.523V208.8H427.031V202.632C427.823 203.64 428.999 204.3 430.631 204.3C433.847 204.3 436.379 201.768 436.379 198.252C436.379 194.736 433.847 192.204 430.631 192.204ZM430.331 194.568C432.491 194.568 433.799 196.236 433.799 198.252C433.799 200.268 432.491 201.936 430.331 201.936C428.255 201.936 426.863 200.352 426.863 198.252C426.863 196.152 428.255 194.568 430.331 194.568ZM445.584 192.204C443.952 192.204 442.776 192.864 441.984 193.872V192.504H439.476V208.8H441.984V202.632C442.776 203.64 443.952 204.3 445.584 204.3C448.8 204.3 451.332 201.768 451.332 198.252C451.332 194.736 448.8 192.204 445.584 192.204ZM445.284 194.568C447.444 194.568 448.752 196.236 448.752 198.252C448.752 200.268 447.444 201.936 445.284 201.936C443.208 201.936 441.816 200.352 441.816 198.252C441.816 196.152 443.208 194.568 445.284 194.568ZM455.524 200.1C454.408 200.1 453.424 201.06 453.424 202.188C453.424 203.316 454.408 204.3 455.524 204.3C456.64 204.3 457.612 203.316 457.612 202.188C457.612 201.06 456.64 200.1 455.524 200.1ZM467.538 192.504H463.134V189.024H460.614V192.504H458.322V194.784H460.614V199.836C460.614 202.896 462.138 204.3 464.742 204.3C466.182 204.3 467.346 203.784 468.27 203.16L467.274 201.156C466.59 201.588 465.738 201.936 464.958 201.936C463.95 201.936 463.134 201.336 463.134 199.788V194.784H467.538V192.504ZM476.421 192.204C475.017 192.204 473.841 192.708 473.085 193.8V192.504H470.601V204H473.109V197.676C473.109 195.72 474.249 194.592 475.845 194.592C476.457 194.592 477.225 194.736 477.753 195.012L478.353 192.528C477.777 192.3 477.189 192.204 476.421 192.204ZM491.485 192.504H488.977V193.896C488.185 192.876 486.997 192.204 485.365 192.204C482.149 192.204 479.617 194.736 479.617 198.252C479.617 201.768 482.149 204.3 485.365 204.3C486.997 204.3 488.185 203.64 488.977 202.62V204H491.485V192.504ZM485.665 194.568C487.741 194.568 489.133 196.152 489.133 198.252C489.133 200.352 487.741 201.936 485.665 201.936C483.505 201.936 482.197 200.268 482.197 198.252C482.197 196.236 483.505 194.568 485.665 194.568ZM500.341 192.204C497.125 192.204 494.593 194.736 494.593 198.252C494.593 201.768 497.125 204.3 500.341 204.3C501.973 204.3 503.161 203.64 503.953 202.62V204H506.461V186.72H503.953V193.896C503.161 192.876 501.973 192.204 500.341 192.204ZM500.641 194.568C502.717 194.568 504.109 196.152 504.109 198.252C504.109 200.352 502.717 201.936 500.641 201.936C498.481 201.936 497.173 200.268 497.173 198.252C497.173 196.236 498.481 194.568 500.641 194.568ZM515.294 192.204C511.91 192.204 509.57 194.652 509.57 198.252C509.57 201.9 512.006 204.3 515.45 204.3C517.19 204.3 518.774 203.88 520.178 202.68L518.93 200.892C517.982 201.648 516.758 202.104 515.606 202.104C513.974 202.104 512.522 201.24 512.186 199.176H520.682C520.706 198.888 520.73 198.564 520.73 198.24C520.718 194.652 518.51 192.204 515.294 192.204ZM515.246 194.436C516.842 194.436 517.886 195.48 518.162 197.268H512.198C512.462 195.588 513.458 194.436 515.246 194.436ZM532.731 193.428C531.543 192.66 529.875 192.216 528.075 192.216C525.147 192.216 523.323 193.62 523.323 195.9C523.323 197.748 524.679 198.924 527.223 199.272L528.423 199.428C529.791 199.62 530.415 200.052 530.415 200.7C530.415 201.564 529.515 202.104 527.799 202.104C525.927 202.104 524.835 201.564 524.007 200.928L522.843 202.812C524.523 204.06 526.587 204.288 527.775 204.288C531.087 204.288 533.007 202.74 533.007 200.532C533.007 198.564 531.519 197.496 529.011 197.136L527.823 196.956C526.767 196.8 525.927 196.572 525.927 195.768C525.927 194.952 526.731 194.4 528.099 194.4C529.527 194.4 530.955 194.952 531.651 195.384L532.731 193.428Z" fill="#173361"/>
<path d="M344.529 12.204C342.897 12.204 341.721 12.864 340.929 13.872V6.72H338.421V24H340.929V22.632C341.721 23.64 342.897 24.3 344.529 24.3C347.745 24.3 350.277 21.768 350.277 18.252C350.277 14.736 347.745 12.204 344.529 12.204ZM344.229 14.568C346.389 14.568 347.697 16.236 347.697 18.252C347.697 20.268 346.389 21.936 344.229 21.936C342.153 21.936 340.761 20.352 340.761 18.252C340.761 16.152 342.153 14.568 344.229 14.568ZM359.194 12.204C357.79 12.204 356.614 12.708 355.858 13.8V12.504H353.374V24H355.882V17.676C355.882 15.72 357.022 14.592 358.618 14.592C359.23 14.592 359.998 14.736 360.526 15.012L361.126 12.528C360.55 12.3 359.962 12.204 359.194 12.204ZM368.57 12.204C365.018 12.204 362.39 14.808 362.39 18.252C362.39 21.696 365.018 24.3 368.57 24.3C372.122 24.3 374.762 21.696 374.762 18.252C374.762 14.808 372.122 12.204 368.57 12.204ZM368.57 14.568C370.622 14.568 372.182 16.08 372.182 18.252C372.182 20.424 370.622 21.936 368.57 21.936C366.518 21.936 364.97 20.424 364.97 18.252C364.97 16.08 366.518 14.568 368.57 14.568ZM380.386 6.72H377.866V24H380.386V19.152H381.634L385.462 24H388.642L383.782 17.916L388.594 12.504H385.438L381.646 16.872H380.386V6.72ZM395.325 12.204C391.941 12.204 389.601 14.652 389.601 18.252C389.601 21.9 392.037 24.3 395.481 24.3C397.221 24.3 398.805 23.88 400.209 22.68L398.961 20.892C398.013 21.648 396.789 22.104 395.637 22.104C394.005 22.104 392.553 21.24 392.217 19.176H400.713C400.737 18.888 400.761 18.564 400.761 18.24C400.749 14.652 398.541 12.204 395.325 12.204ZM395.277 14.436C396.873 14.436 397.917 15.48 398.193 17.268H392.229C392.493 15.588 393.489 14.436 395.277 14.436ZM409.679 12.204C408.275 12.204 407.099 12.708 406.343 13.8V12.504H403.859V24H406.367V17.676C406.367 15.72 407.507 14.592 409.103 14.592C409.715 14.592 410.483 14.736 411.011 15.012L411.611 12.528C411.035 12.3 410.447 12.204 409.679 12.204ZM431.446 12.504H428.938V13.896C428.146 12.876 426.958 12.204 425.326 12.204C422.11 12.204 419.578 14.736 419.578 18.252C419.578 21.768 422.11 24.3 425.326 24.3C426.958 24.3 428.146 23.64 428.938 22.62V24H431.446V12.504ZM425.626 14.568C427.702 14.568 429.094 16.152 429.094 18.252C429.094 20.352 427.702 21.936 425.626 21.936C423.466 21.936 422.158 20.268 422.158 18.252C422.158 16.236 423.466 14.568 425.626 14.568ZM441.406 12.204C440.23 12.204 438.802 12.552 437.878 13.908V12.504H435.382V24H437.902V17.628C437.902 15.66 439.258 14.592 440.878 14.592C442.558 14.592 443.554 15.672 443.554 17.604V24H446.074V16.776C446.074 14.088 444.142 12.204 441.406 12.204ZM454.81 12.204C451.594 12.204 449.062 14.736 449.062 18.252C449.062 21.768 451.594 24.3 454.81 24.3C456.442 24.3 457.63 23.64 458.422 22.62V24H460.93V6.72H458.422V13.896C457.63 12.876 456.442 12.204 454.81 12.204ZM455.11 14.568C457.186 14.568 458.578 16.152 458.578 18.252C458.578 20.352 457.186 21.936 455.11 21.936C452.95 21.936 451.642 20.268 451.642 18.252C451.642 16.236 452.95 14.568 455.11 14.568ZM480.239 13.428C479.051 12.66 477.383 12.216 475.583 12.216C472.655 12.216 470.831 13.62 470.831 15.9C470.831 17.748 472.187 18.924 474.731 19.272L475.931 19.428C477.299 19.62 477.923 20.052 477.923 20.7C477.923 21.564 477.023 22.104 475.307 22.104C473.435 22.104 472.343 21.564 471.515 20.928L470.351 22.812C472.031 24.06 474.095 24.288 475.283 24.288C478.595 24.288 480.515 22.74 480.515 20.532C480.515 18.564 479.027 17.496 476.519 17.136L475.331 16.956C474.275 16.8 473.435 16.572 473.435 15.768C473.435 14.952 474.239 14.4 475.607 14.4C477.035 14.4 478.463 14.952 479.159 15.384L480.239 13.428ZM488.696 12.204C485.036 12.204 482.648 14.808 482.648 18.252C482.648 21.696 485.036 24.3 488.696 24.3C490.412 24.3 491.948 23.676 492.992 22.464L491.444 20.736C490.712 21.42 489.728 21.936 488.624 21.936C486.692 21.936 485.228 20.424 485.228 18.252C485.228 16.08 486.692 14.568 488.624 14.568C489.728 14.568 490.58 15 491.384 15.756L492.992 14.04C491.972 12.828 490.412 12.204 488.696 12.204ZM498.324 6.72H495.804V24H498.324V17.628C498.324 15.66 499.68 14.592 501.3 14.592C502.98 14.592 503.976 15.672 503.976 17.604V24H506.496V16.776C506.496 14.088 504.564 12.204 501.828 12.204C500.664 12.204 499.248 12.552 498.324 13.872V6.72ZM515.208 12.204C511.824 12.204 509.484 14.652 509.484 18.252C509.484 21.9 511.92 24.3 515.364 24.3C517.104 24.3 518.688 23.88 520.092 22.68L518.844 20.892C517.896 21.648 516.672 22.104 515.52 22.104C513.888 22.104 512.436 21.24 512.1 19.176H520.596C520.62 18.888 520.644 18.564 520.644 18.24C520.632 14.652 518.424 12.204 515.208 12.204ZM515.16 14.436C516.756 14.436 517.8 15.48 518.076 17.268H512.112C512.376 15.588 513.372 14.436 515.16 14.436ZM537.937 12.204C536.509 12.204 534.733 12.612 533.737 14.256C532.945 12.984 531.517 12.204 529.765 12.204C528.589 12.204 527.161 12.552 526.237 13.908V12.504H523.741V24H526.261V17.628C526.261 15.66 527.617 14.592 529.237 14.592C530.917 14.592 531.913 15.672 531.913 17.604V24H534.433V17.628C534.433 15.66 535.789 14.592 537.409 14.592C539.089 14.592 540.085 15.672 540.085 17.604V24H542.605V16.776C542.605 14.088 540.673 12.204 537.937 12.204ZM557.469 12.504H554.961V13.896C554.169 12.876 552.981 12.204 551.349 12.204C548.133 12.204 545.601 14.736 545.601 18.252C545.601 21.768 548.133 24.3 551.349 24.3C552.981 24.3 554.169 23.64 554.961 22.62V24H557.469V12.504ZM551.649 14.568C553.725 14.568 555.117 16.152 555.117 18.252C555.117 20.352 553.725 21.936 551.649 21.936C549.489 21.936 548.181 20.268 548.181 18.252C548.181 16.236 549.489 14.568 551.649 14.568ZM573.694 12.204C572.29 12.204 571.114 12.708 570.358 13.8V12.504H567.874V24H570.382V17.676C570.382 15.72 571.522 14.592 573.118 14.592C573.73 14.592 574.498 14.736 575.026 15.012L575.626 12.528C575.05 12.3 574.462 12.204 573.694 12.204ZM582.614 12.204C579.23 12.204 576.89 14.652 576.89 18.252C576.89 21.9 579.326 24.3 582.77 24.3C584.51 24.3 586.094 23.88 587.498 22.68L586.25 20.892C585.302 21.648 584.078 22.104 582.926 22.104C581.294 22.104 579.842 21.24 579.506 19.176H588.002C588.026 18.888 588.05 18.564 588.05 18.24C588.038 14.652 585.83 12.204 582.614 12.204ZM582.566 14.436C584.162 14.436 585.206 15.48 585.482 17.268H579.518C579.782 15.588 580.778 14.436 582.566 14.436ZM595.648 12.204C593.02 12.204 590.32 14.412 590.32 18.132C590.32 21.852 593.02 24.06 595.648 24.06C597.316 24.06 598.612 23.484 599.476 22.38V23.304C599.476 25.44 598.18 26.736 595.828 26.736C594.424 26.736 593.092 26.28 591.928 25.572L591.016 27.696C592.228 28.56 594.112 29.028 595.828 29.028C599.668 29.028 601.996 26.808 601.996 23.196V12.504H599.476V13.884C598.612 12.792 597.316 12.204 595.648 12.204ZM596.296 14.568C598.324 14.568 599.692 16.116 599.692 18.132C599.692 20.148 598.324 21.696 596.296 21.696C594.172 21.696 592.9 20.064 592.9 18.132C592.9 16.188 594.172 14.568 596.296 14.568ZM608.457 12.504H605.937V24H608.457V12.504ZM607.185 6.756C606.189 6.756 605.433 7.536 605.433 8.532C605.433 9.528 606.189 10.284 607.185 10.284C608.181 10.284 608.961 9.528 608.961 8.532C608.961 7.536 608.181 6.756 607.185 6.756ZM621.286 13.428C620.098 12.66 618.43 12.216 616.63 12.216C613.702 12.216 611.878 13.62 611.878 15.9C611.878 17.748 613.234 18.924 615.778 19.272L616.978 19.428C618.346 19.62 618.97 20.052 618.97 20.7C618.97 21.564 618.07 22.104 616.354 22.104C614.482 22.104 613.39 21.564 612.562 20.928L611.398 22.812C613.078 24.06 615.142 24.288 616.33 24.288C619.642 24.288 621.562 22.74 621.562 20.532C621.562 18.564 620.074 17.496 617.566 17.136L616.378 16.956C615.322 16.8 614.482 16.572 614.482 15.768C614.482 14.952 615.286 14.4 616.654 14.4C618.082 14.4 619.51 14.952 620.206 15.384L621.286 13.428ZM632.359 12.504H627.955V9.024H625.435V12.504H623.143V14.784H625.435V19.836C625.435 22.896 626.959 24.3 629.563 24.3C631.003 24.3 632.167 23.784 633.091 23.16L632.095 21.156C631.411 21.588 630.559 21.936 629.779 21.936C628.771 21.936 627.955 21.336 627.955 19.788V14.784H632.359V12.504ZM641.241 12.204C639.837 12.204 638.661 12.708 637.905 13.8V12.504H635.421V24H637.929V17.676C637.929 15.72 639.069 14.592 640.665 14.592C641.277 14.592 642.045 14.736 642.573 15.012L643.173 12.528C642.597 12.3 642.009 12.204 641.241 12.204ZM657.407 12.504H654.647L651.083 19.104L647.387 12.504H644.567L649.667 21.636L645.551 28.872H648.335L657.407 12.504Z" fill="#173361"/>
<path d="M747.88 193.428C746.692 192.66 745.024 192.216 743.224 192.216C740.296 192.216 738.472 193.62 738.472 195.9C738.472 197.748 739.828 198.924 742.372 199.272L743.572 199.428C744.94 199.62 745.564 200.052 745.564 200.7C745.564 201.564 744.664 202.104 742.948 202.104C741.076 202.104 739.984 201.564 739.156 200.928L737.992 202.812C739.672 204.06 741.736 204.288 742.924 204.288C746.236 204.288 748.156 202.74 748.156 200.532C748.156 198.564 746.668 197.496 744.16 197.136L742.972 196.956C741.916 196.8 741.076 196.572 741.076 195.768C741.076 194.952 741.88 194.4 743.248 194.4C744.676 194.4 746.104 194.952 746.8 195.384L747.88 193.428ZM758.952 192.504H754.548V189.024H752.028V192.504H749.736V194.784H752.028V199.836C752.028 202.896 753.552 204.3 756.156 204.3C757.596 204.3 758.76 203.784 759.684 203.16L758.688 201.156C758.004 201.588 757.152 201.936 756.372 201.936C755.364 201.936 754.548 201.336 754.548 199.788V194.784H758.952V192.504ZM767.367 192.204C763.815 192.204 761.187 194.808 761.187 198.252C761.187 201.696 763.815 204.3 767.367 204.3C770.919 204.3 773.559 201.696 773.559 198.252C773.559 194.808 770.919 192.204 767.367 192.204ZM767.367 194.568C769.419 194.568 770.979 196.08 770.979 198.252C770.979 200.424 769.419 201.936 767.367 201.936C765.315 201.936 763.767 200.424 763.767 198.252C763.767 196.08 765.315 194.568 767.367 194.568ZM781.883 192.204C778.223 192.204 775.835 194.808 775.835 198.252C775.835 201.696 778.223 204.3 781.883 204.3C783.599 204.3 785.135 203.676 786.179 202.464L784.631 200.736C783.899 201.42 782.915 201.936 781.811 201.936C779.879 201.936 778.415 200.424 778.415 198.252C778.415 196.08 779.879 194.568 781.811 194.568C782.915 194.568 783.767 195 784.571 195.756L786.179 194.04C785.159 192.828 783.599 192.204 781.883 192.204ZM791.511 186.72H788.991V204H791.511V199.152H792.759L796.587 204H799.767L794.907 197.916L799.719 192.504H796.563L792.771 196.872H791.511V186.72ZM812.594 192.504H810.086V193.896C809.294 192.876 808.106 192.204 806.474 192.204C803.258 192.204 800.726 194.736 800.726 198.252C800.726 201.768 803.258 204.3 806.474 204.3C808.106 204.3 809.294 203.64 810.086 202.62V204H812.594V192.504ZM806.774 194.568C808.85 194.568 810.242 196.152 810.242 198.252C810.242 200.352 808.85 201.936 806.774 201.936C804.614 201.936 803.306 200.268 803.306 198.252C803.306 196.236 804.614 194.568 806.774 194.568ZM822.639 192.204C821.007 192.204 819.831 192.864 819.039 193.872V192.504H816.531V208.8H819.039V202.632C819.831 203.64 821.007 204.3 822.639 204.3C825.855 204.3 828.387 201.768 828.387 198.252C828.387 194.736 825.855 192.204 822.639 192.204ZM822.339 194.568C824.499 194.568 825.807 196.236 825.807 198.252C825.807 200.268 824.499 201.936 822.339 201.936C820.263 201.936 818.871 200.352 818.871 198.252C818.871 196.152 820.263 194.568 822.339 194.568ZM837.592 192.204C835.96 192.204 834.784 192.864 833.992 193.872V192.504H831.484V208.8H833.992V202.632C834.784 203.64 835.96 204.3 837.592 204.3C840.808 204.3 843.34 201.768 843.34 198.252C843.34 194.736 840.808 192.204 837.592 192.204ZM837.292 194.568C839.452 194.568 840.76 196.236 840.76 198.252C840.76 200.268 839.452 201.936 837.292 201.936C835.216 201.936 833.824 200.352 833.824 198.252C833.824 196.152 835.216 194.568 837.292 194.568ZM847.532 200.1C846.416 200.1 845.432 201.06 845.432 202.188C845.432 203.316 846.416 204.3 847.532 204.3C848.648 204.3 849.62 203.316 849.62 202.188C849.62 201.06 848.648 200.1 847.532 200.1ZM859.546 192.504H855.142V189.024H852.622V192.504H850.33V194.784H852.622V199.836C852.622 202.896 854.146 204.3 856.75 204.3C858.19 204.3 859.354 203.784 860.278 203.16L859.282 201.156C858.598 201.588 857.746 201.936 856.966 201.936C855.958 201.936 855.142 201.336 855.142 199.788V194.784H859.546V192.504ZM868.429 192.204C867.025 192.204 865.849 192.708 865.093 193.8V192.504H862.609V204H865.117V197.676C865.117 195.72 866.257 194.592 867.853 194.592C868.465 194.592 869.233 194.736 869.761 195.012L870.361 192.528C869.785 192.3 869.197 192.204 868.429 192.204ZM883.492 192.504H880.984V193.896C880.192 192.876 879.004 192.204 877.372 192.204C874.156 192.204 871.624 194.736 871.624 198.252C871.624 201.768 874.156 204.3 877.372 204.3C879.004 204.3 880.192 203.64 880.984 202.62V204H883.492V192.504ZM877.672 194.568C879.748 194.568 881.14 196.152 881.14 198.252C881.14 200.352 879.748 201.936 877.672 201.936C875.512 201.936 874.204 200.268 874.204 198.252C874.204 196.236 875.512 194.568 877.672 194.568ZM892.349 192.204C889.133 192.204 886.601 194.736 886.601 198.252C886.601 201.768 889.133 204.3 892.349 204.3C893.981 204.3 895.169 203.64 895.961 202.62V204H898.469V186.72H895.961V193.896C895.169 192.876 893.981 192.204 892.349 192.204ZM892.649 194.568C894.725 194.568 896.117 196.152 896.117 198.252C896.117 200.352 894.725 201.936 892.649 201.936C890.489 201.936 889.181 200.268 889.181 198.252C889.181 196.236 890.489 194.568 892.649 194.568ZM907.302 192.204C903.918 192.204 901.578 194.652 901.578 198.252C901.578 201.9 904.014 204.3 907.458 204.3C909.198 204.3 910.782 203.88 912.186 202.68L910.938 200.892C909.99 201.648 908.766 202.104 907.614 202.104C905.982 202.104 904.53 201.24 904.194 199.176H912.69C912.714 198.888 912.738 198.564 912.738 198.24C912.726 194.652 910.518 192.204 907.302 192.204ZM907.254 194.436C908.85 194.436 909.894 195.48 910.17 197.268H904.206C904.47 195.588 905.466 194.436 907.254 194.436ZM924.739 193.428C923.551 192.66 921.883 192.216 920.083 192.216C917.155 192.216 915.331 193.62 915.331 195.9C915.331 197.748 916.687 198.924 919.231 199.272L920.431 199.428C921.799 199.62 922.423 200.052 922.423 200.7C922.423 201.564 921.523 202.104 919.807 202.104C917.935 202.104 916.843 201.564 916.015 200.928L914.851 202.812C916.531 204.06 918.595 204.288 919.783 204.288C923.095 204.288 925.015 202.74 925.015 200.532C925.015 198.564 923.527 197.496 921.019 197.136L919.831 196.956C918.775 196.8 917.935 196.572 917.935 195.768C917.935 194.952 918.739 194.4 920.107 194.4C921.535 194.4 922.963 194.952 923.659 195.384L924.739 193.428ZM934.564 196.464H927.604V198.744H934.564V196.464ZM940.716 192.504H938.196V205.296C938.196 206.28 937.716 206.664 937.116 206.664C936.804 206.664 936.48 206.604 936.192 206.496L935.604 208.68C936.06 208.896 936.756 209.028 937.344 209.028C939.324 209.028 940.716 207.78 940.716 205.416V192.504ZM939.432 186.756C938.436 186.756 937.68 187.536 937.68 188.532C937.68 189.528 938.436 190.284 939.432 190.284C940.428 190.284 941.208 189.528 941.208 188.532C941.208 187.536 940.428 186.756 939.432 186.756ZM953.567 193.428C952.379 192.66 950.711 192.216 948.911 192.216C945.983 192.216 944.159 193.62 944.159 195.9C944.159 197.748 945.515 198.924 948.059 199.272L949.259 199.428C950.627 199.62 951.251 200.052 951.251 200.7C951.251 201.564 950.351 202.104 948.635 202.104C946.763 202.104 945.671 201.564 944.843 200.928L943.679 202.812C945.359 204.06 947.423 204.288 948.611 204.288C951.923 204.288 953.843 202.74 953.843 200.532C953.843 198.564 952.355 197.496 949.847 197.136L948.659 196.956C947.603 196.8 946.763 196.572 946.763 195.768C946.763 194.952 947.567 194.4 948.935 194.4C950.363 194.4 951.791 194.952 952.487 195.384L953.567 193.428ZM962.156 192.204C958.604 192.204 955.976 194.808 955.976 198.252C955.976 201.696 958.604 204.3 962.156 204.3C965.708 204.3 968.348 201.696 968.348 198.252C968.348 194.808 965.708 192.204 962.156 192.204ZM962.156 194.568C964.208 194.568 965.768 196.08 965.768 198.252C965.768 200.424 964.208 201.936 962.156 201.936C960.104 201.936 958.556 200.424 958.556 198.252C958.556 196.08 960.104 194.568 962.156 194.568ZM977.476 192.204C976.3 192.204 974.872 192.552 973.948 193.908V192.504H971.452V204H973.972V197.628C973.972 195.66 975.328 194.592 976.948 194.592C978.628 194.592 979.624 195.672 979.624 197.604V204H982.144V196.776C982.144 194.088 980.212 192.204 977.476 192.204Z" fill="#173361"/>
<path d="M751.593 549.72H749.073V567H751.593V562.152H752.841L756.669 567H759.849L754.989 560.916L759.801 555.504H756.645L752.853 559.872H751.593V549.72ZM772.676 555.504H770.168V556.896C769.376 555.876 768.188 555.204 766.556 555.204C763.34 555.204 760.808 557.736 760.808 561.252C760.808 564.768 763.34 567.3 766.556 567.3C768.188 567.3 769.376 566.64 770.168 565.62V567H772.676V555.504ZM766.856 557.568C768.932 557.568 770.324 559.152 770.324 561.252C770.324 563.352 768.932 564.936 766.856 564.936C764.696 564.936 763.388 563.268 763.388 561.252C763.388 559.236 764.696 557.568 766.856 557.568ZM783.993 555.504H780.057V553.56C780.057 552.42 780.585 551.784 781.557 551.784C782.313 551.784 783.117 552.06 783.705 552.396L784.593 550.284C783.741 549.78 782.733 549.42 781.389 549.42C778.701 549.42 777.537 551.256 777.537 553.56V555.504H775.233V557.784H777.537V567H780.057V557.784H783.993V555.504ZM789.258 549.72H786.738V567H789.258V562.152H790.506L794.334 567H797.514L792.654 560.916L797.466 555.504H794.31L790.518 559.872H789.258V549.72ZM810.34 555.504H807.832V556.896C807.04 555.876 805.852 555.204 804.22 555.204C801.004 555.204 798.472 557.736 798.472 561.252C798.472 564.768 801.004 567.3 804.22 567.3C805.852 567.3 807.04 566.64 807.832 565.62V567H810.34V555.504ZM804.52 557.568C806.596 557.568 807.988 559.152 807.988 561.252C807.988 563.352 806.596 564.936 804.52 564.936C802.36 564.936 801.052 563.268 801.052 561.252C801.052 559.236 802.36 557.568 804.52 557.568ZM829.649 556.428C828.461 555.66 826.793 555.216 824.993 555.216C822.065 555.216 820.241 556.62 820.241 558.9C820.241 560.748 821.597 561.924 824.141 562.272L825.341 562.428C826.709 562.62 827.333 563.052 827.333 563.7C827.333 564.564 826.433 565.104 824.717 565.104C822.845 565.104 821.753 564.564 820.925 563.928L819.761 565.812C821.441 567.06 823.505 567.288 824.693 567.288C828.005 567.288 829.925 565.74 829.925 563.532C829.925 561.564 828.437 560.496 825.929 560.136L824.741 559.956C823.685 559.8 822.845 559.572 822.845 558.768C822.845 557.952 823.649 557.4 825.017 557.4C826.445 557.4 827.873 557.952 828.569 558.384L829.649 556.428ZM840.722 555.504H836.318V552.024H833.798V555.504H831.506V557.784H833.798V562.836C833.798 565.896 835.322 567.3 837.926 567.3C839.366 567.3 840.53 566.784 841.454 566.16L840.458 564.156C839.774 564.588 838.922 564.936 838.142 564.936C837.134 564.936 836.318 564.336 836.318 562.788V557.784H840.722V555.504ZM849.604 555.204C848.2 555.204 847.024 555.708 846.268 556.8V555.504H843.784V567H846.292V560.676C846.292 558.72 847.432 557.592 849.028 557.592C849.64 557.592 850.408 557.736 850.936 558.012L851.536 555.528C850.96 555.3 850.372 555.204 849.604 555.204ZM858.524 555.204C855.14 555.204 852.8 557.652 852.8 561.252C852.8 564.9 855.236 567.3 858.68 567.3C860.42 567.3 862.004 566.88 863.408 565.68L862.16 563.892C861.212 564.648 859.988 565.104 858.836 565.104C857.204 565.104 855.752 564.24 855.416 562.176H863.912C863.936 561.888 863.96 561.564 863.96 561.24C863.948 557.652 861.74 555.204 858.524 555.204ZM858.476 557.436C860.072 557.436 861.116 558.48 861.392 560.268H855.428C855.692 558.588 856.688 557.436 858.476 557.436ZM878.098 555.504H875.59V556.896C874.798 555.876 873.61 555.204 871.978 555.204C868.762 555.204 866.23 557.736 866.23 561.252C866.23 564.768 868.762 567.3 871.978 567.3C873.61 567.3 874.798 566.64 875.59 565.62V567H878.098V555.504ZM872.278 557.568C874.354 557.568 875.746 559.152 875.746 561.252C875.746 563.352 874.354 564.936 872.278 564.936C870.118 564.936 868.81 563.268 868.81 561.252C868.81 559.236 870.118 557.568 872.278 557.568ZM896.23 555.204C894.802 555.204 893.026 555.612 892.03 557.256C891.238 555.984 889.81 555.204 888.058 555.204C886.882 555.204 885.454 555.552 884.53 556.908V555.504H882.034V567H884.554V560.628C884.554 558.66 885.91 557.592 887.53 557.592C889.21 557.592 890.206 558.672 890.206 560.604V567H892.726V560.628C892.726 558.66 894.082 557.592 895.702 557.592C897.382 557.592 898.378 558.672 898.378 560.604V567H900.898V559.776C900.898 557.088 898.966 555.204 896.23 555.204ZM913.626 556.428C912.438 555.66 910.77 555.216 908.97 555.216C906.042 555.216 904.218 556.62 904.218 558.9C904.218 560.748 905.574 561.924 908.118 562.272L909.318 562.428C910.686 562.62 911.31 563.052 911.31 563.7C911.31 564.564 910.41 565.104 908.694 565.104C906.822 565.104 905.73 564.564 904.902 563.928L903.738 565.812C905.418 567.06 907.482 567.288 908.67 567.288C911.982 567.288 913.902 565.74 913.902 563.532C913.902 561.564 912.414 560.496 909.906 560.136L908.718 559.956C907.662 559.8 906.822 559.572 906.822 558.768C906.822 557.952 907.626 557.4 908.994 557.4C910.422 557.4 911.85 557.952 912.546 558.384L913.626 556.428Z" fill="#173361"/>
<path d="M519.75 550.72H517.23V568H519.75V563.152H520.998L524.826 568H528.006L523.146 561.916L527.958 556.504H524.802L521.01 560.872H519.75V550.72ZM539.165 557.428C537.977 556.66 536.309 556.216 534.509 556.216C531.581 556.216 529.757 557.62 529.757 559.9C529.757 561.748 531.113 562.924 533.657 563.272L534.857 563.428C536.225 563.62 536.849 564.052 536.849 564.7C536.849 565.564 535.949 566.104 534.233 566.104C532.361 566.104 531.269 565.564 530.441 564.928L529.277 566.812C530.957 568.06 533.021 568.288 534.209 568.288C537.521 568.288 539.441 566.74 539.441 564.532C539.441 562.564 537.953 561.496 535.445 561.136L534.257 560.956C533.201 560.8 532.361 560.572 532.361 559.768C532.361 558.952 533.165 558.4 534.533 558.4C535.961 558.4 537.389 558.952 538.085 559.384L539.165 557.428ZM547.322 556.204C544.106 556.204 541.574 558.736 541.574 562.252C541.574 565.768 544.106 568.3 547.322 568.3C548.954 568.3 550.142 567.64 550.934 566.62V572.8H553.442V556.504H550.934V557.896C550.142 556.876 548.954 556.204 547.322 556.204ZM547.622 558.568C549.698 558.568 551.09 560.152 551.09 562.252C551.09 564.352 549.698 565.936 547.622 565.936C545.462 565.936 544.154 564.268 544.154 562.252C544.154 560.236 545.462 558.568 547.622 558.568ZM559.898 550.72H557.378V568H559.898V550.72ZM564.135 551.2V568H570.807C576.063 568 579.531 564.664 579.531 559.6C579.531 554.536 576.063 551.2 570.807 551.2H564.135ZM570.807 553.768C574.755 553.768 576.687 556.18 576.687 559.6C576.687 562.984 574.755 565.432 570.807 565.432H566.847V553.768H570.807ZM583.19 551.2V568H590.09C593.918 568 596.378 566.548 596.378 563.2C596.378 561.268 594.998 559.816 593.402 559.348C594.878 558.94 595.994 557.5 595.994 555.772C595.994 552.436 593.294 551.2 589.706 551.2H583.19ZM589.97 560.8C592.106 560.8 593.534 561.208 593.534 563.104C593.534 565.048 592.106 565.456 589.97 565.456H585.902V560.8H589.97ZM589.598 553.744C591.482 553.744 593.15 554.044 593.15 555.976C593.15 557.98 591.506 558.268 589.622 558.268H585.902V553.744H589.598Z" fill="#173361"/>
<path d="M1136.38 286.2V303H1139.09V295.932H1140.46L1145.81 303H1149.17L1143.64 295.932C1147.06 295.812 1149.24 293.916 1149.24 291.06C1149.24 287.928 1147.15 286.2 1143.29 286.2H1136.38ZM1143.22 288.744C1145.34 288.744 1146.42 289.464 1146.42 291.06C1146.42 292.68 1145.4 293.472 1143.22 293.472H1139.09V288.744H1143.22ZM1165.08 300.456H1155.54V295.812H1164.6V293.268H1155.54V288.744H1164.93V286.2H1152.83V303H1165.08V300.456ZM1181.57 287.724C1179.88 286.596 1177.95 285.912 1175.5 285.912C1171.87 285.912 1168.88 287.784 1168.88 291.156C1168.88 294.276 1171.36 295.452 1173.86 295.8L1175.17 295.98C1177.63 296.316 1178.95 296.928 1178.95 298.248C1178.95 299.796 1177.22 300.732 1175.02 300.732C1173.08 300.732 1170.91 299.94 1169.75 298.884L1168.28 301.044C1170.02 302.544 1172.75 303.3 1175.03 303.3C1178.67 303.3 1181.77 301.428 1181.77 298.008C1181.77 294.888 1179.08 293.76 1176.35 293.388L1175.19 293.232C1173.01 292.92 1171.7 292.38 1171.7 290.988C1171.7 289.452 1173.23 288.48 1175.48 288.48C1177.18 288.48 1178.77 289.008 1180.19 289.92L1181.57 287.724ZM1197.17 286.2H1183.58V288.768H1189.02V303H1191.73V288.768H1197.17V286.2ZM1213.76 286.2H1210.37L1203.74 303H1206.56L1208.21 298.716H1215.82L1217.48 303H1220.39L1213.76 286.2ZM1212.02 288.9L1214.83 296.148H1209.21L1212.02 288.9ZM1229.54 296.4C1233.42 296.4 1235.49 294.444 1235.49 291.3C1235.49 288.156 1233.42 286.2 1229.54 286.2H1223.03V303H1225.74V296.4H1229.54ZM1229.47 288.756C1231.67 288.756 1232.67 289.572 1232.67 291.3C1232.67 293.028 1231.67 293.844 1229.47 293.844H1225.74V288.756H1229.47ZM1241.63 286.2H1238.92V303H1241.63V286.2Z" fill="#173361"/>
<path d="M357.134 311.428C355.946 310.66 354.278 310.216 352.478 310.216C349.55 310.216 347.726 311.62 347.726 313.9C347.726 315.748 349.082 316.924 351.626 317.272L352.826 317.428C354.194 317.62 354.818 318.052 354.818 318.7C354.818 319.564 353.918 320.104 352.202 320.104C350.33 320.104 349.238 319.564 348.41 318.928L347.246 320.812C348.926 322.06 350.99 322.288 352.178 322.288C355.49 322.288 357.41 320.74 357.41 318.532C357.41 316.564 355.922 315.496 353.414 315.136L352.226 314.956C351.17 314.8 350.33 314.572 350.33 313.768C350.33 312.952 351.134 312.4 352.502 312.4C353.93 312.4 355.358 312.952 356.054 313.384L357.134 311.428ZM368.206 310.504H363.802V307.024H361.282V310.504H358.99V312.784H361.282V317.836C361.282 320.896 362.806 322.3 365.41 322.3C366.85 322.3 368.014 321.784 368.938 321.16L367.942 319.156C367.258 319.588 366.406 319.936 365.626 319.936C364.618 319.936 363.802 319.336 363.802 317.788V312.784H368.206V310.504ZM376.621 310.204C373.069 310.204 370.441 312.808 370.441 316.252C370.441 319.696 373.069 322.3 376.621 322.3C380.173 322.3 382.813 319.696 382.813 316.252C382.813 312.808 380.173 310.204 376.621 310.204ZM376.621 312.568C378.673 312.568 380.233 314.08 380.233 316.252C380.233 318.424 378.673 319.936 376.621 319.936C374.569 319.936 373.021 318.424 373.021 316.252C373.021 314.08 374.569 312.568 376.621 312.568ZM391.137 310.204C387.477 310.204 385.089 312.808 385.089 316.252C385.089 319.696 387.477 322.3 391.137 322.3C392.853 322.3 394.389 321.676 395.433 320.464L393.885 318.736C393.153 319.42 392.169 319.936 391.065 319.936C389.133 319.936 387.669 318.424 387.669 316.252C387.669 314.08 389.133 312.568 391.065 312.568C392.169 312.568 393.021 313 393.825 313.756L395.433 312.04C394.413 310.828 392.853 310.204 391.137 310.204ZM400.765 304.72H398.245V322H400.765V317.152H402.013L405.841 322H409.021L404.161 315.916L408.973 310.504H405.817L402.025 314.872H400.765V304.72ZM421.848 310.504H419.34V311.896C418.548 310.876 417.36 310.204 415.728 310.204C412.512 310.204 409.98 312.736 409.98 316.252C409.98 319.768 412.512 322.3 415.728 322.3C417.36 322.3 418.548 321.64 419.34 320.62V322H421.848V310.504ZM416.028 312.568C418.104 312.568 419.496 314.152 419.496 316.252C419.496 318.352 418.104 319.936 416.028 319.936C413.868 319.936 412.56 318.268 412.56 316.252C412.56 314.236 413.868 312.568 416.028 312.568ZM431.892 310.204C430.26 310.204 429.084 310.864 428.292 311.872V310.504H425.784V326.8H428.292V320.632C429.084 321.64 430.26 322.3 431.892 322.3C435.108 322.3 437.64 319.768 437.64 316.252C437.64 312.736 435.108 310.204 431.892 310.204ZM431.592 312.568C433.752 312.568 435.06 314.236 435.06 316.252C435.06 318.268 433.752 319.936 431.592 319.936C429.516 319.936 428.124 318.352 428.124 316.252C428.124 314.152 429.516 312.568 431.592 312.568ZM446.846 310.204C445.214 310.204 444.038 310.864 443.246 311.872V310.504H440.738V326.8H443.246V320.632C444.038 321.64 445.214 322.3 446.846 322.3C450.062 322.3 452.594 319.768 452.594 316.252C452.594 312.736 450.062 310.204 446.846 310.204ZM446.546 312.568C448.706 312.568 450.014 314.236 450.014 316.252C450.014 318.268 448.706 319.936 446.546 319.936C444.47 319.936 443.078 318.352 443.078 316.252C443.078 314.152 444.47 312.568 446.546 312.568ZM456.785 318.1C455.669 318.1 454.685 319.06 454.685 320.188C454.685 321.316 455.669 322.3 456.785 322.3C457.901 322.3 458.873 321.316 458.873 320.188C458.873 319.06 457.901 318.1 456.785 318.1ZM472.109 310.504H469.589V316.9C469.589 319.12 468.353 319.936 466.781 319.936C465.209 319.936 463.973 319.12 463.973 316.9V310.504H461.453V317.128C461.453 320.788 464.081 322.3 466.781 322.3C469.469 322.3 472.109 320.788 472.109 317.128V310.504ZM484.821 311.428C483.633 310.66 481.965 310.216 480.165 310.216C477.237 310.216 475.413 311.62 475.413 313.9C475.413 315.748 476.769 316.924 479.313 317.272L480.513 317.428C481.881 317.62 482.505 318.052 482.505 318.7C482.505 319.564 481.605 320.104 479.889 320.104C478.017 320.104 476.925 319.564 476.097 318.928L474.933 320.812C476.613 322.06 478.677 322.288 479.865 322.288C483.177 322.288 485.097 320.74 485.097 318.532C485.097 316.564 483.609 315.496 481.101 315.136L479.913 314.956C478.857 314.8 478.017 314.572 478.017 313.768C478.017 312.952 478.821 312.4 480.189 312.4C481.617 312.4 483.045 312.952 483.741 313.384L484.821 311.428ZM492.954 310.204C489.57 310.204 487.23 312.652 487.23 316.252C487.23 319.9 489.666 322.3 493.11 322.3C494.85 322.3 496.434 321.88 497.838 320.68L496.59 318.892C495.642 319.648 494.418 320.104 493.266 320.104C491.634 320.104 490.182 319.24 489.846 317.176H498.342C498.366 316.888 498.39 316.564 498.39 316.24C498.378 312.652 496.17 310.204 492.954 310.204ZM492.906 312.436C494.502 312.436 495.546 313.48 495.822 315.268H489.858C490.122 313.588 491.118 312.436 492.906 312.436ZM507.308 310.204C505.904 310.204 504.728 310.708 503.972 311.8V310.504H501.488V322H503.996V315.676C503.996 313.72 505.136 312.592 506.732 312.592C507.344 312.592 508.112 312.736 508.64 313.012L509.24 310.528C508.664 310.3 508.076 310.204 507.308 310.204ZM520.47 311.428C519.282 310.66 517.614 310.216 515.814 310.216C512.886 310.216 511.062 311.62 511.062 313.9C511.062 315.748 512.418 316.924 514.962 317.272L516.162 317.428C517.53 317.62 518.154 318.052 518.154 318.7C518.154 319.564 517.254 320.104 515.538 320.104C513.666 320.104 512.574 319.564 511.746 318.928L510.582 320.812C512.262 322.06 514.326 322.288 515.514 322.288C518.826 322.288 520.746 320.74 520.746 318.532C520.746 316.564 519.258 315.496 516.75 315.136L515.562 314.956C514.506 314.8 513.666 314.572 513.666 313.768C513.666 312.952 514.47 312.4 515.838 312.4C517.266 312.4 518.694 312.952 519.39 313.384L520.47 311.428Z" fill="#173361"/>
<path d="M592.895 255.428C591.707 254.66 590.039 254.216 588.239 254.216C585.311 254.216 583.487 255.62 583.487 257.9C583.487 259.748 584.843 260.924 587.387 261.272L588.587 261.428C589.955 261.62 590.579 262.052 590.579 262.7C590.579 263.564 589.679 264.104 587.963 264.104C586.091 264.104 584.999 263.564 584.171 262.928L583.007 264.812C584.687 266.06 586.751 266.288 587.939 266.288C591.251 266.288 593.171 264.74 593.171 262.532C593.171 260.564 591.683 259.496 589.175 259.136L587.987 258.956C586.931 258.8 586.091 258.572 586.091 257.768C586.091 256.952 586.895 256.4 588.263 256.4C589.691 256.4 591.119 256.952 591.815 257.384L592.895 255.428ZM603.968 254.504H599.564V251.024H597.044V254.504H594.752V256.784H597.044V261.836C597.044 264.896 598.568 266.3 601.172 266.3C602.612 266.3 603.776 265.784 604.7 265.16L603.704 263.156C603.02 263.588 602.168 263.936 601.388 263.936C600.38 263.936 599.564 263.336 599.564 261.788V256.784H603.968V254.504ZM612.383 254.204C608.831 254.204 606.203 256.808 606.203 260.252C606.203 263.696 608.831 266.3 612.383 266.3C615.935 266.3 618.575 263.696 618.575 260.252C618.575 256.808 615.935 254.204 612.383 254.204ZM612.383 256.568C614.435 256.568 615.995 258.08 615.995 260.252C615.995 262.424 614.435 263.936 612.383 263.936C610.331 263.936 608.783 262.424 608.783 260.252C608.783 258.08 610.331 256.568 612.383 256.568ZM626.899 254.204C623.239 254.204 620.851 256.808 620.851 260.252C620.851 263.696 623.239 266.3 626.899 266.3C628.615 266.3 630.151 265.676 631.195 264.464L629.647 262.736C628.915 263.42 627.931 263.936 626.827 263.936C624.895 263.936 623.431 262.424 623.431 260.252C623.431 258.08 624.895 256.568 626.827 256.568C627.931 256.568 628.783 257 629.587 257.756L631.195 256.04C630.175 254.828 628.615 254.204 626.899 254.204ZM636.527 248.72H634.007V266H636.527V261.152H637.775L641.603 266H644.783L639.923 259.916L644.735 254.504H641.579L637.787 258.872H636.527V248.72ZM657.61 254.504H655.102V255.896C654.31 254.876 653.122 254.204 651.49 254.204C648.274 254.204 645.742 256.736 645.742 260.252C645.742 263.768 648.274 266.3 651.49 266.3C653.122 266.3 654.31 265.64 655.102 264.62V266H657.61V254.504ZM651.79 256.568C653.866 256.568 655.258 258.152 655.258 260.252C655.258 262.352 653.866 263.936 651.79 263.936C649.63 263.936 648.322 262.268 648.322 260.252C648.322 258.236 649.63 256.568 651.79 256.568ZM667.654 254.204C666.022 254.204 664.846 254.864 664.054 255.872V254.504H661.546V270.8H664.054V264.632C664.846 265.64 666.022 266.3 667.654 266.3C670.87 266.3 673.402 263.768 673.402 260.252C673.402 256.736 670.87 254.204 667.654 254.204ZM667.354 256.568C669.514 256.568 670.822 258.236 670.822 260.252C670.822 262.268 669.514 263.936 667.354 263.936C665.278 263.936 663.886 262.352 663.886 260.252C663.886 258.152 665.278 256.568 667.354 256.568ZM682.607 254.204C680.975 254.204 679.799 254.864 679.007 255.872V254.504H676.499V270.8H679.007V264.632C679.799 265.64 680.975 266.3 682.607 266.3C685.823 266.3 688.355 263.768 688.355 260.252C688.355 256.736 685.823 254.204 682.607 254.204ZM682.307 256.568C684.467 256.568 685.775 258.236 685.775 260.252C685.775 262.268 684.467 263.936 682.307 263.936C680.231 263.936 678.839 262.352 678.839 260.252C678.839 258.152 680.231 256.568 682.307 256.568ZM692.547 262.1C691.431 262.1 690.447 263.06 690.447 264.188C690.447 265.316 691.431 266.3 692.547 266.3C693.663 266.3 694.635 265.316 694.635 264.188C694.635 263.06 693.663 262.1 692.547 262.1ZM702.49 254.204C699.274 254.204 696.742 256.736 696.742 260.252C696.742 263.768 699.274 266.3 702.49 266.3C704.122 266.3 705.31 265.64 706.102 264.62V266H708.61V248.72H706.102V255.896C705.31 254.876 704.122 254.204 702.49 254.204ZM702.79 256.568C704.866 256.568 706.258 258.152 706.258 260.252C706.258 262.352 704.866 263.936 702.79 263.936C700.63 263.936 699.322 262.268 699.322 260.252C699.322 258.236 700.63 256.568 702.79 256.568ZM717.898 254.204C714.346 254.204 711.718 256.808 711.718 260.252C711.718 263.696 714.346 266.3 717.898 266.3C721.45 266.3 724.09 263.696 724.09 260.252C724.09 256.808 721.45 254.204 717.898 254.204ZM717.898 256.568C719.95 256.568 721.51 258.08 721.51 260.252C721.51 262.424 719.95 263.936 717.898 263.936C715.846 263.936 714.298 262.424 714.298 260.252C714.298 258.08 715.846 256.568 717.898 256.568ZM729.715 248.72H727.195V266H729.715V248.72ZM736.16 248.72H733.64V266H736.16V248.72ZM751.125 254.504H748.617V255.896C747.825 254.876 746.637 254.204 745.005 254.204C741.789 254.204 739.257 256.736 739.257 260.252C739.257 263.768 741.789 266.3 745.005 266.3C746.637 266.3 747.825 265.64 748.617 264.62V266H751.125V254.504ZM745.305 256.568C747.381 256.568 748.773 258.152 748.773 260.252C748.773 262.352 747.381 263.936 745.305 263.936C743.145 263.936 741.837 262.268 741.837 260.252C741.837 258.236 743.145 256.568 745.305 256.568ZM760.882 254.204C759.478 254.204 758.302 254.708 757.546 255.8V254.504H755.062V266H757.57V259.676C757.57 257.72 758.71 256.592 760.306 256.592C760.918 256.592 761.686 256.736 762.214 257.012L762.814 254.528C762.238 254.3 761.65 254.204 760.882 254.204ZM774.044 255.428C772.856 254.66 771.188 254.216 769.388 254.216C766.46 254.216 764.636 255.62 764.636 257.9C764.636 259.748 765.992 260.924 768.536 261.272L769.736 261.428C771.104 261.62 771.728 262.052 771.728 262.7C771.728 263.564 770.828 264.104 769.112 264.104C767.24 264.104 766.148 263.564 765.32 262.928L764.156 264.812C765.836 266.06 767.9 266.288 769.088 266.288C772.4 266.288 774.32 264.74 774.32 262.532C774.32 260.564 772.832 259.496 770.324 259.136L769.136 258.956C768.08 258.8 767.24 258.572 767.24 257.768C767.24 256.952 768.044 256.4 769.412 256.4C770.84 256.4 772.268 256.952 772.964 257.384L774.044 255.428ZM783.389 254.204C781.757 254.204 780.581 254.864 779.789 255.872V248.72H777.281V266H779.789V264.632C780.581 265.64 781.757 266.3 783.389 266.3C786.605 266.3 789.137 263.768 789.137 260.252C789.137 256.736 786.605 254.204 783.389 254.204ZM783.089 256.568C785.249 256.568 786.557 258.236 786.557 260.252C786.557 262.268 785.249 263.936 783.089 263.936C781.013 263.936 779.621 262.352 779.621 260.252C779.621 258.152 781.013 256.568 783.089 256.568ZM802.946 254.504H800.186L796.622 261.104L792.926 254.504H790.106L795.206 263.636L791.09 270.872H793.874L802.946 254.504ZM814.078 254.504H804.658V256.784H810.85L804.466 264.176V266H814.198V263.72H807.802L814.078 256.328V254.504ZM820.066 254.504H817.546V266H820.066V254.504ZM818.794 248.756C817.798 248.756 817.042 249.536 817.042 250.532C817.042 251.528 817.798 252.284 818.794 252.284C819.79 252.284 820.57 251.528 820.57 250.532C820.57 249.536 819.79 248.756 818.794 248.756ZM830.099 254.204C828.467 254.204 827.291 254.864 826.499 255.872V254.504H823.991V270.8H826.499V264.632C827.291 265.64 828.467 266.3 830.099 266.3C833.315 266.3 835.847 263.768 835.847 260.252C835.847 256.736 833.315 254.204 830.099 254.204ZM829.799 256.568C831.959 256.568 833.267 258.236 833.267 260.252C833.267 262.268 831.959 263.936 829.799 263.936C827.723 263.936 826.331 262.352 826.331 260.252C826.331 258.152 827.723 256.568 829.799 256.568Z" fill="#173361"/>
<path d="M592.25 461C592.25 455.25 573 450.5 549.5 450.5C525.75 450.5 506.5 455.25 506.5 461V525.75C506.5 531.5 525.75 536.25 549.25 536.25C573 536.25 592 531.5 592 525.75L592.25 461Z" fill="#D7EFF6"/>
<path d="M570.75 530.25C569.75 530.25 568.75 529.5 568.75 528.25V524.5C568.75 524.5 568.75 524.5 568.75 524.25C568.75 515 567.25 506 564.25 497.25L563.5 495.25C561.75 490.25 559.25 485.5 556.5 480.75C553.75 485.25 551.25 490.25 549.5 495.25L549 497.5C546 506 544.5 515.25 544.5 524.25V528C544.5 529 543.75 530 542.5 530C541.5 530 540.5 529.25 540.5 528.25V528V527.5V527.25V524.5C540.5 524.5 540.5 524.5 540.5 524.25C540.5 514.75 542 505.25 545.25 496.25L546 494.25C548.25 488 551.25 482 555 476.5C555.25 476 556 475.75 556.5 475.75C557.25 475.75 557.75 476 558 476.5C561.75 482 564.75 488 567 494.25L567.75 496.25C570.75 505.25 572.5 514.75 572.5 524.25V524.5V528.25C572.75 529.5 571.75 530.25 570.75 530.25Z" fill="#0074A2"/>
<path d="M556.75 500.75C555 500.75 553.75 502 553.75 503.75C553.75 505.5 555 506.75 556.75 506.75C558.5 506.75 559.75 505.5 559.75 503.75C559.75 502.25 558.5 501 556.75 500.75Z" fill="#0074A2"/>
<path d="M556.75 510C555 510 553.75 511.25 553.75 513C553.75 514.75 555 516 556.75 516C558.5 516 559.75 514.75 559.75 513C559.75 511.25 558.5 510 556.75 510Z" fill="#0074A2"/>
<path d="M556.75 519C555 519 553.75 520.25 553.75 522C553.75 523.75 555 525 556.75 525C558.5 525 559.75 523.75 559.75 522C559.75 520.5 558.5 519 556.75 519Z" fill="#0074A2"/>
<path d="M556.75 531.25C534.25 531.25 511.75 527 511.75 518.75V453.5C511.75 445.25 534.5 441 556.75 441C579 441 601.75 445.25 601.75 453.5V518.75C601.75 527 579.25 531.25 556.75 531.25ZM556.75 445C529.75 445 515.5 450.5 515.5 453.5V518.75C515.5 521.75 529.75 527.5 556.75 527.5C583.75 527.5 598 521.75 598 518.75V453.5C598 450.5 584 445 556.75 445Z" fill="#0074A2"/>
<path d="M513.5 455.5C512.5 455.5 511.5 454.75 511.5 453.5C511.5 451.25 513 449.25 516.25 447.5C517.25 447 518.25 447.25 518.75 448.25C519.25 449.25 519 450.25 518 450.75C516.25 452 515.5 453 515.5 453.5C515.5 454.75 514.75 455.5 513.5 455.5Z" fill="#0074A2"/>
<path d="M517.5 451.25C516.75 451.25 516.25 451 515.75 450.25C515.25 449.25 515.5 448 516.5 447.5C523.75 443.5 539.25 441 556.75 441C564.5 441 572 441.5 578.75 442.5C579.75 442.75 580.5 443.5 580.25 444.5C580 445.5 579.25 446.25 578.25 446C571.75 445 564.25 444.5 556.75 444.5C540 444.5 525 446.75 518.25 450.5C518 451 517.75 451.25 517.5 451.25Z" fill="#0074A2"/>
<path d="M556.75 466C553.75 466 550.75 466 548 465.75C547 465.75 546.25 464.75 546.25 463.75C546.25 462.75 547.25 462 548.25 462C551 462.25 554 462.25 557 462.25C584.25 462.25 598.25 456.5 598.25 453.5C598.25 452 594.5 449.25 584 447.25C583 447 582.25 446 582.5 445C582.75 444 583.75 443.25 584.75 443.5C596 445.75 602 449.25 602 453.5C601.75 461.75 579.25 466 556.75 466Z" fill="#0074A2"/>
<path d="M542.5 465.5C542.25 465.5 542.25 465.5 542.5 465.5C540.25 465.25 538.25 465 536.25 464.75C535.25 464.5 534.5 463.75 534.75 462.75C535 461.75 535.75 461 536.75 461.25C538.75 461.5 540.75 461.75 542.75 462C543.75 462 544.5 463 544.5 464C544.25 464.75 543.25 465.5 542.5 465.5Z" fill="#0074A2"/>
<rect x="337" y="31" width="734" height="352" rx="14" stroke="#173361" stroke-width="2" stroke-dasharray="6 6"/>
<path d="M570 245L566.537 228.029L553.572 239.513L570 245ZM537.877 210.995L559.926 235.889L562.172 233.9L540.123 209.005L537.877 210.995Z" fill="#173361"/>
<path d="M570 266L553.706 271.873L566.939 283.048L570 266ZM533.146 311.968L562.436 277.282L560.144 275.347L530.854 310.032L533.146 311.968Z" fill="#173361"/>
<circle cx="493" cy="251" r="14" fill="#173361" stroke="#173361" stroke-width="2"/>
<path d="M495.639 242.936L488.763 245.84V248.552L493.035 246.716V260H495.639V242.936Z" fill="white"/>
<circle cx="474" cy="481" r="14" fill="#173361" stroke="#173361" stroke-width="2"/>
<path d="M476.639 472.936L469.763 475.84V478.552L474.035 476.716V490H476.639V472.936Z" fill="white"/>
<circle cx="738" cy="481" r="14" fill="#173361" stroke="#173361" stroke-width="2"/>
<path d="M734.128 477.256C734.956 476.248 735.856 475.396 737.56 475.396C739.372 475.396 740.476 476.62 740.476 478.3C740.476 479.5 739.912 480.496 738.976 481.504L732.904 487.96V490H743.656V487.528H736.756L740.968 483.016C742 481.9 743.2 480.424 743.2 478.312C743.2 475.156 741.112 472.912 737.632 472.912C734.596 472.912 733.072 474.628 732.268 475.72L734.128 477.256Z" fill="white"/>
<circle cx="635" cy="178" r="14" fill="#173361" stroke="#173361" stroke-width="2"/>
<path d="M631.128 174.256C631.956 173.248 632.856 172.396 634.56 172.396C636.372 172.396 637.476 173.62 637.476 175.3C637.476 176.5 636.912 177.496 635.976 178.504L629.904 184.96V187H640.656V184.528H633.756L637.968 180.016C639 178.9 640.2 177.424 640.2 175.312C640.2 172.156 638.112 169.912 634.632 169.912C631.596 169.912 630.072 171.628 629.268 172.72L631.128 174.256Z" fill="white"/>
<path d="M1102 258.906L1086.96 250.313L1087.04 267.633L1102 258.906ZM857.007 261.5L1088.51 260.467L1088.49 257.467L856.993 258.5L857.007 261.5Z" fill="#173361"/>
<path d="M725 196L710 187.34V204.66L725 196ZM548 197.5H711.5V194.5H548V197.5Z" fill="#173361"/>
<path d="M539 389.5L530.001 396.735L540.767 400.911L539 389.5ZM549.08 422.503C544.116 422.106 540.115 419.541 537.796 415.371C535.466 411.183 534.781 405.273 536.711 398.152L534.78 397.629C532.75 405.12 533.405 411.592 536.048 416.344C538.702 421.114 543.308 424.048 548.92 424.497L549.08 422.503Z" fill="#173361"/>
<path d="M571 423L579.999 415.765L569.234 411.589L571 423ZM560.92 389.997C565.884 390.394 569.885 392.959 572.204 397.129C574.534 401.317 575.219 407.227 573.29 414.348L575.22 414.871C577.25 407.38 576.595 400.908 573.952 396.156C571.298 391.386 566.692 388.452 561.08 388.003L560.92 389.997Z" fill="#173361"/>
<path d="M813.412 390.5L804.413 397.735L815.178 401.911L813.412 390.5ZM823.492 423.503C818.528 423.106 814.527 420.541 812.208 416.371C809.878 412.183 809.193 406.273 811.122 399.152L809.192 398.629C807.162 406.12 807.817 412.592 810.46 417.344C813.114 422.114 817.72 425.048 823.332 425.497L823.492 423.503Z" fill="#173361"/>
<path d="M845.412 424L854.411 416.765L843.646 412.589L845.412 424ZM835.332 390.997C840.296 391.394 844.297 393.959 846.616 398.129C848.946 402.317 849.631 408.227 847.701 415.348L849.632 415.871C851.662 408.38 851.007 401.908 848.364 397.156C845.71 392.386 841.104 389.452 835.492 389.003L835.332 390.997Z" fill="#173361"/>
<defs>
<clipPath id="clip0_2_175">
<rect width="150" height="56.0127" fill="white" transform="translate(1102 209)"/>
</clipPath>
</defs>
</svg>
